<svg xmlns="http://www.w3.org/2000/svg" enable-background="new 0 0 2500 2000" viewBox="0 0 2500 2000" id="happy-fathers-day"><path fill="#0C7684" d="M1951,1539.3c4.8-10.7,9.6-21.6,11.8-33.1c2.3-11.5,1.8-23.8-3.6-34c-0.9-1.7-2.1-3.5-4-3.9
				c-2.4-0.5-4.8,1.5-6.2,3.6c-2.9,4.3-4,9.5-4.7,14.6C1941.8,1504.2,1946.3,1522.4,1951,1539.3L1951,1539.3z"></path><path fill="#0E5B63" d="M1950.2,1537.1c3.4-16,4.8-32.2,4.2-48.4c-0.2-4.6-0.5-9.1-0.9-13.7c-0.1-0.7,1.1-0.8,1.1-0.1
					c1.7,16.2,1.3,32.6-0.9,48.8c-0.6,4.5-1.4,9.1-2.4,13.6C1951.1,1538,1950,1537.8,1950.2,1537.1L1950.2,1537.1z" opacity=".31"></path><path fill="#F078A5" d="M2009,1479.5c10.9-1.1,20.2-7.9,28.6-14.9c7.2-6.1,14.4-13,16.8-22.1c1.6-6.2,0.7-12.8-1.2-18.9
			c-1.7-5.5-4.5-11-9.5-14c-5-3-12.4-2.2-15.3,2.7c-1.3-4-6.1-6.3-10.2-5.5c-4.2,0.8-7.5,4.2-9.3,8c-1.8,3.9-2.2,8.2-2.2,12.4
			c-0.3,17.5,4.9,35.6-1.3,52L2009,1479.5z"></path><path fill="#F078A5" d="M2005.8,1481.1c7.3,4.3,11.9,12,15.6,19.7c3.7,7.6,7,15.7,12.9,21.9c3.4,3.5,7.5,6.3,12,8.1
			c3.4,1.3,7.3,2.1,10.6,0.7c2.8-1.2,4.9-3.8,5.4-6.7c0.2-1,0.2-2.2,1-3c0.5-0.6,1.4-0.8,2.1-1c5.3-1.7,9-6.8,10.1-12.2
			s-0.5-11.1-3.2-15.9c-5.2-9.1-14.8-15.1-25.1-17.2c-10.3-2.1-21-0.4-30.7,3.5L2005.8,1481.1z"></path><path fill="#0C7684" d="M2011.2,1483.4c-10.8,3.5-20.1,10.2-28.1,18c-7.9,7.6-14.8,16.3-21.2,25.2
				c-12.3,16.9-22.5,35.2-30.6,54.4c-4.5,10.9-8.4,22-11.4,33.4c-0.6,2.2-4.1,1.5-3.5-0.7c5.6-20.7,13.6-40.7,23.9-59.5
				c5.1-9.4,10.8-18.4,16.9-27.1c6.4-9,13.2-17.7,20.9-25.6c9.1-9.3,19.6-17.4,32.1-21.4C2012.3,1479.3,2013.4,1482.7,2011.2,1483.4
				L2011.2,1483.4z"></path><path fill="#FFB2A8" d="M2005.2,1484.8c9.6,2.4,19,6,28.6,8.7c9.6,2.7,19.6,4.4,29.5,3.2c5.3-0.7,10.8-2.3,14.4-6.3
					s4.7-10.5,1.2-14.6c-1.6-1.9-4.3-3.7-3.7-6.2c0.2-0.7,0.6-1.3,1-1.9c4.2-6,5.3-14.2,2.6-21c-2.8-6.8-9.5-11.9-16.8-12.5
					c-6.7-0.5-13.1,2.5-18.8,6c-16.4,10.2-29.7,25.4-37.5,43L2005.2,1484.8z"></path><path fill="#F078A5" d="M2048 1485.6c-8.4-2.4-17.1-2.9-25.8-3-2.5 0-5 0-7.5 0-.8 0-.7-1.2.1-1.2 8.8 0 17.6-.1 26.3 1.4 2.5.4 4.9 1 7.3 1.7C2049.1 1484.7 2048.7 1485.8 2048 1485.6L2048 1485.6zM2063.2 1461.9c-12.9 3.3-25.6 7.2-38.1 11.9-3.5 1.3-7 2.7-10.5 4.1-.7.3-1.2-.8-.5-1 12.4-5.1 25-9.5 37.9-13.2 3.6-1 7.3-2 11-3C2063.7 1460.6 2063.9 1461.7 2063.2 1461.9L2063.2 1461.9zM2042.4 1452.4c-9.2 7.4-18.1 15.2-26.8 23.2-.6.5-1.3-.4-.8-.9 8.7-8.1 17.6-15.8 26.8-23.2C2042.2 1451.1 2043 1452 2042.4 1452.4L2042.4 1452.4z"></path><path fill="#C1277F" d="M2001.6,1489.3c4.1,2.5,9.2,3.5,13.9,2.7c2.2-0.4,4.4-1.1,6-2.7c1.6-1.6,2.3-4.1,1.4-6.1
			c-0.6-1.3-2-2.4-2-3.9c0-0.6,0.3-1.2,0.4-1.8c0.9-3,0-6.4-2.2-8.5c-2.2-2.2-5.6-3-8.6-2c-4.3,1.4-6.7,5.8-8.4,10
			c-1.6,3.8-3,7.7-2.7,11.8L2001.6,1489.3z"></path><path fill="#0C7684" d="M1498.3,1777.6c-9.6-6.8-19.2-13.7-30-18.2c-10.8-4.5-22.9-6.5-34-3.3c-1.8,0.5-3.8,1.4-4.6,3.2
				c-1,2.3,0.5,5,2.3,6.8c3.6,3.7,8.5,5.8,13.3,7.6C1462,1779.6,1480.7,1778.8,1498.3,1777.6L1498.3,1777.6z"></path><path fill="#0E5B63" d="M1495.9,1778c-15-6.5-30.6-11.2-46.6-13.9c-4.5-0.8-9-1.4-13.6-1.8c-0.7-0.1-0.5-1.2,0.2-1.1
					c16.2,1.6,32.2,5.2,47.6,10.7c4.3,1.5,8.6,3.2,12.8,5.1C1497,1777.2,1496.6,1778.3,1495.9,1778L1495.9,1778z" opacity=".31"></path><path fill="#F078A5" d="M1451.4,1708.8c1.1-10.9-3.7-21.4-8.9-31c-4.5-8.3-9.9-16.7-18.3-20.9c-5.8-2.8-12.4-3.3-18.8-2.7
			c-5.7,0.6-11.7,2.2-15.6,6.5c-3.9,4.3-4.7,11.7-0.4,15.6c-4.2,0.4-7.4,4.7-7.4,8.9c0,4.2,2.6,8.2,6,10.7c3.4,2.5,7.6,3.8,11.7,4.7
			c17.1,3.8,35.9,2.4,50.7,11.7L1451.4,1708.8z"></path><path fill="#F078A5" d="M1452.3,1712.2c5.7-6.3,14.2-9.2,22.4-11.3c8.2-2.1,16.8-3.7,24-8.2c4.1-2.6,7.7-6.1,10.3-10.1
			c2-3.1,3.5-6.7,2.8-10.3c-0.6-2.9-2.7-5.5-5.5-6.6c-1-0.4-2.1-0.7-2.7-1.5c-0.4-0.7-0.5-1.5-0.6-2.3c-0.6-5.5-4.8-10.2-10-12.3
			c-5.1-2.1-11-1.8-16.3,0c-9.9,3.3-17.8,11.5-21.9,21.1c-4.1,9.6-4.6,20.5-2.8,30.8L1452.3,1712.2z"></path><path fill="#0C7684" d="M1455.6,1707.4c1.2,11.2,5.9,21.7,12,31.2c5.9,9.2,13,17.8,20.4,25.9c14,15.4,29.9,29.2,47.2,40.9
				c9.7,6.6,19.9,12.6,30.4,17.9c2.1,1,0.6,4.3-1.4,3.3c-19.1-9.6-37.1-21.5-53.5-35.3c-8.1-6.9-15.9-14.3-23.1-22
				c-7.5-8-14.7-16.5-20.9-25.6c-7.3-10.7-13.1-22.7-14.5-35.7C1451.8,1705.5,1455.4,1705.1,1455.6,1707.4L1455.6,1707.4z"></path><path fill="#FFB2A8" d="M1455.8,1713.6c4.3-9,9.7-17.4,14.2-26.3s8.3-18.3,9.1-28.2c0.4-5.3-0.1-11-3.2-15.3
					c-3.1-4.3-9.4-6.7-14-4.1c-2.2,1.2-4.5,3.5-6.8,2.3c-0.6-0.3-1.1-0.9-1.6-1.4c-5-5.3-12.8-8.1-20-6.7s-13.6,6.9-15.6,13.9
					c-1.9,6.4-0.2,13.4,2.1,19.6c6.7,18.1,18.9,34.2,34.6,45.4L1455.8,1713.6z"></path><path fill="#F078A5" d="M1465.2 1671.8c-4 7.7-6.3 16.2-8.1 24.7-.5 2.4-1 4.9-1.5 7.3-.1.7-1.3.5-1.1-.3 1.7-8.6 3.5-17.3 6.7-25.5.9-2.3 1.9-4.6 3.1-6.8C1464.5 1670.6 1465.5 1671.1 1465.2 1671.8L1465.2 1671.8zM1445 1652.1c.6 13.3 1.9 26.6 4 39.7.6 3.7 1.2 7.4 1.9 11.1.1.7-1 1.1-1.1.3-2.5-13.1-4.2-26.4-5.3-39.7-.3-3.8-.5-7.6-.7-11.4C1443.8 1651.4 1445 1651.4 1445 1652.1L1445 1652.1zM1431.5 1670.6c5.4 10.5 11.2 20.8 17.4 30.9.4.6-.6 1.2-1 .6-6.2-10.1-12-20.4-17.4-30.9C1430.2 1670.6 1431.2 1670 1431.5 1670.6L1431.5 1670.6z"></path><path fill="#C1277F" d="M1459.5,1718c3.3-3.5,5.2-8.3,5.4-13.1c0.1-2.2-0.2-4.5-1.5-6.4c-1.2-1.9-3.5-3.1-5.7-2.6
			c-1.4,0.4-2.8,1.4-4.2,1.1c-0.6-0.1-1.1-0.5-1.7-0.8c-2.7-1.5-6.2-1.3-8.8,0.4c-2.6,1.7-4,4.9-3.7,8c0.5,4.5,4.4,7.7,8.1,10.3
			c3.4,2.3,7,4.5,11,5.1L1459.5,1718z"></path><path fill="#0C7684" d="M308.9 1829.9c0 0-24.4-8.6-16.4-19.6 8-11 20.4 0 20.4 0s-4.8-15 1.9-16.1c6.7-1.1 7.5 11.5 7.5 11.5s11.3-19.4 22.3-16.2c11 3.3 8.3 19.6 8.3 19.6s4.6-9.1 9.4-7.7c4.8 1.5 0 10.6 0 10.6s-4.8-27.4 15.6-24.4c20.4 2.9 15 22.8 15 22.8s2.7-9.4 10.5-5.1c7.8 4.3 2.3 14.5 2.3 14.5s8.5-5.6 12.7-.8c4.1 4.8-6.1 14.5-6.1 14.5L308.9 1829.9zM576 1830.4c0 0-25.7-14.3-21.5-25 4.3-10.7 15.7-3.8 15.7-3.8s-18.9-26.6-.4-31.9c18.6-5.4 25.4 25.2 25.4 25.2s3.2-11.7 10.4-10.6c7.2 1.1 5 10.6 5 10.6s-14.7-32.3 5.7-32.9c20.4-.6 12.9 23.7 12.9 23.7s20-9.7 28.4-2.1c8.4 7.5 2.7 24.1 2.7 24.1h71.1c0 0 2.1-30.5 16.1-28.5 13.9 1.9 14.3 20 14.3 20s-4.3-38 12.5-37.2c16.8.9 6.4 22.7 6.4 22.7s9.7-13.9 27.9-3.9c18.2 10 8.6 29.9 8.6 29.9s1.4-8.1 10.4-2.9c8.9 5.2-2.5 24.5-2.5 24.5L576 1830.4zM1564.3 1830.4c0 0-25.7-14.3-21.5-25 4.3-10.7 15.7-3.8 15.7-3.8s-18.9-26.6-.4-31.9 25.4 25.2 25.4 25.2 3.2-11.7 10.4-10.6c7.2 1.1 5 10.6 5 10.6s-14.7-32.3 5.7-32.9c20.4-.6 12.9 23.7 12.9 23.7s20-9.7 28.4-2.1c8.4 7.5 2.7 24.1 2.7 24.1h71.1c0 0 2.1-30.5 16.1-28.5 13.9 1.9 14.3 20 14.3 20s-4.3-38 12.5-37.2c16.8.9 6.4 22.7 6.4 22.7s9.7-13.9 27.9-3.9c18.2 10 8.6 29.9 8.6 29.9s1.4-8.1 10.4-2.9c8.9 5.2-2.5 24.5-2.5 24.5L1564.3 1830.4zM1876.1 1787.3c0 0-4.6 12.2-1.8 22.2 2.8 10 6.7 13.6 7 14 .3.4 4.2 8.5 9.5 5.4s6.9-9.8 5.2-16.9c-1.7-7.1-3.3-13.4 1.2-15.4 4.5-2 6.6 2.1 6.2 9-.4 7-5 22.6-2.6 24.8 2.4 2.1 27.8 5.8 32.4 4 4.6-1.8.8-2.9-.3-8.1-1.1-5.2-1.3-14.4 3.5-15.2 4.8-.9 7.5 9.3 9.6 12.5 2.1 3.2 4.9 7.1 6.3 7.4 1.2.3 16-4.9 25.7-11.2 3.1-2 5.2-5 5.4-7.9.5-5.2 1.1-13.9-.4-18.4-2.2-6.6-10.6-5.5-13.7-5.2-3 .2-25.1.9-27-2.7-1.9-3.6 4.4-4 10.3-4.6 5.8-.6 20.8-1.9 20.4-3.4s-12-15.3-21.7-17.5c-9.6-2.2-37.3 14.6-39.2 11.4-1.9-3.2 4.9-5.5 8.9-7.3 4-1.8 21-8.1 18.6-9.8-2.4-1.8-7.7-10.2-25.5-4.3S1876.1 1787.3 1876.1 1787.3z"></path><path fill="#0C7684" d="M1852.3 1785.4c.2.5.8.6 1.5.3.1 0 7.6-3.4 30.9-6 23.3-2.6 70.8 27.4 71.3 27.7.5.3 1.2.1 1.8-.4.5-.5.6-1.1.1-1.4-2-1.3-48.6-30.7-72.7-28-24 2.7-31.6 6.2-31.9 6.3C1852.5 1784.2 1852.1 1784.9 1852.3 1785.4 1852.3 1785.4 1852.3 1785.4 1852.3 1785.4zM1848 1753.9c0 0-11.3 5.7-21 3.7-9.8-2.1-13.5-5.8-13.9-6.1-.4-.3-8.4-3.6-5.9-9.4 2.6-5.7 8.8-7.9 15.7-6.7 6.9 1.2 13 2.3 14.6-2.5 1.6-4.8-2.5-6.6-9.1-5.7-6.6.9-21.2 7-23.4 4.7-2.2-2.3-7.8-28.2-6.4-33.1s2.7-1 7.7-.3c5 .7 13.8.2 14.2-4.8.4-5-9.5-7-12.7-8.9s-7.2-4.4-7.6-5.9c-.4-1.2 3.4-16.9 8.6-27.4 1.7-3.4 4.4-5.7 7.1-6.2 4.9-1 13.2-2.2 17.6-1 6.4 1.8 6.1 10.5 6.1 13.7 0 3.2 1.2 26 4.7 27.6 3.5 1.7 3.4-4.9 3.5-10.9.1-6.1.1-21.6 1.6-21.3 1.5.3 15.5 11.2 18.4 20.9s-10.9 39.6-7.7 41.3 4.9-5.4 6.3-9.8c1.4-4.3 6-22.3 7.9-19.9 1.9 2.3 10.4 7.1 6.2 25.9S1848 1753.9 1848 1753.9z"></path><path fill="#0C7684" d="M1840.3,1804.3c-0.4-0.2-0.6-0.8-0.4-1.5c0-0.1,14.1-34.2,14.7-58.3c0.6-24.2-31.9-70.8-32.2-71.2
					c-0.3-0.4-0.2-1.3,0.2-1.8c0.4-0.6,1-0.7,1.4-0.2c1.4,1.9,33.2,47.6,32.6,72.7c-0.7,24.9-14.8,59.1-14.9,59.5
					C1841.4,1804,1840.8,1804.5,1840.3,1804.3C1840.3,1804.3,1840.3,1804.3,1840.3,1804.3z"></path><path fill="#00AE42" d="M2154.4,1608.5c2.2-9.6,0.1-18.5-5.1-23.5c-9.5-9.1-26.1-23.9-38.2-27.7c-17.8-5.6-32.4,13.6-38.1,20.3
					c-5.6,6.7-48.6,53.6-59.6,52c-11-1.6,0.8-15.4,11.3-28.4c10.5-13.1,38-46.2,34-47.6c-4-1.4-55.2,1.3-79.1,17.8
					c-23.9,16.5-45.2,100.1-55.4,99.1c-10.2-1-1.5-18.7,2.9-29.9c4.4-11.2,25.7-56.1,17.3-53.9c-8.4,2.3-36.2,0-59.9,46.3
					c-15.2,29.7-11.2,77.6-6.4,108.1c0.4,2.4,0.8,4.8,1.2,7c2.3,13.2,4.5,21.7,4.5,21.7s6.1,11.2,17,22c3.1,3.1,6.6,6.1,10.4,8.8
					c4.2,3,8.9,5.7,14,7.6c0,0,0,0,0,0c0.8,0.3,1.6,0.6,2.4,0.9c0,0,0.1,0,0.1,0c8.6,3.1,16,4.8,22,5.6l0,0
					c10.9,1.6,17.1,0.6,18,0.5c0.7-0.1,7.8,1.2,15,0.1c3.9-0.6,7.9-1.9,10.8-4.6c1.9-1.7,3.3-3.9,4.1-6.8c2.6-9.5,0-18.2-6.4-25.2
					c-2.6-2.9-5.8-5.5-9.6-7.8c-2.4-1.5-5.1-2.8-8-4c-6.6-2.8-13-5.4-18.1-8.3c-8.7-4.9-13.8-10.3-10.7-18.2
					c4.9-12.5,17.5-10.5,30.9,1.1c13.4,11.6,36,45.6,45.1,43.9c9.1-1.7,67.7-48.7,73.2-61.1c5.5-12.4-4.4-6.2-17-12
					c-12.7-5.8-31.8-19.6-23.9-31c7.9-11.3,34-1,44.7-0.4c10.7,0.6,24.2,0.9,27.7-1.5C2128.4,1677.2,2147.6,1638.4,2154.4,1608.5z
					 M2021.7,1690.3c-1.6,3.4-7,4.4-11.9,2.1c-5-2.3-7.7-7-6-10.4c1.6-3.4,7-4.4,11.9-2.1
					C2020.6,1682.2,2023.3,1686.9,2021.7,1690.3z M2101.2,1599.6c8.2,3.8,12.6,11.8,9.8,17.8c-2.8,6-11.8,7.8-20.1,4
					c-8.2-3.8-12.6-11.8-9.8-17.8S2093,1595.8,2101.2,1599.6z M2009,1579.4c6.1,2.9,8.6,10.4,5.6,16.9c-3.1,6.5-10.5,9.4-16.7,6.6
					c-6.1-2.9-8.6-10.4-5.6-16.9C1995.3,1579.5,2002.8,1576.5,2009,1579.4z M1971.5,1626.4c6.4,3,8.1,12.8,3.8,21.9
					c-4.3,9.1-13,14.1-19.4,11.2c-6.4-3-8.1-12.8-3.8-21.9C1956.4,1628.4,1965.1,1623.4,1971.5,1626.4z M1998.7,1744.1
					c-11-5.1-17.1-15.2-13.6-22.6c3.5-7.4,15.2-9.2,26.3-4.1s17.1,15.2,13.6,22.6C2021.5,1747.3,2009.7,1749.2,1998.7,1744.1z"></path><path fill="#0C7684" d="M1878,1741.1c-39.2,50.3-52.3,82.4-52.6,83.3c-0.7,1.9-0.2,3.7,1.1,4.1c0,0,0.1,0,0.1,0
					c1.3,0.3,2.9-0.9,3.6-2.7c0.1-0.2,13-31.2,49-77.9C1878.8,1745.9,1878.4,1743.6,1878,1741.1z"></path><path fill="#0C7684" d="M1980.2,1670.4c11.8-23.6,13.5-52.3,13.5-52.6c0.1-0.9,0.9-1.7,1.8-1.8c0.9,0,1.7,0.7,1.6,1.6
					c-0.1,1.2-1.6,27.1-12.3,50.5c49.2-22.8,96.4-38.5,99.9-39.7c1.5-0.5,2.7,0.6,2.7,2.5c0,1.9-1.2,3.8-2.7,4.3
					c-0.4,0.1-10.1,3.4-25.2,8.9l37.3,9.9c0.9,0.2,1.3,1.2,1,2.1c-0.3,0.9-1.3,1.4-2.2,1.2l-41.7-11.1
					c-22.1,8.3-53.2,20.8-83.2,35.6c12.4,5.3,43.8,19.5,58.2,32.4c0.7,0.6,0.6,1.7,0,2.4c-0.7,0.7-1.7,0.8-2.4,0.2
					c-15-13.5-50.3-28.9-59.9-33c-33.8,16.9-65.7,36.6-81.3,56.4c-2.1,2.7-4.2,5.3-6.1,7.8c-0.4-2.2-0.8-4.5-1.2-7
					c1.3-1.7,2.6-3.4,4-5.1C1900.8,1712.2,1940.7,1689.1,1980.2,1670.4z"></path><path fill="#F4F3FE" d="M525.5,514c9.7-5.7,18.1-10.3,23.8-13.5c144.3-83,303.6-144.1,459.5-201.4c36.5-13.4,73.3-26.1,110.5-37.8
		c116.5-36.6,240.3-69.3,363.4-66.9c33.3,0.6,67,4.2,99,13.7c311.7,91.6-79.7,398.6,6.7,541.5s330.7-144.4,474.4,139.4
		c143.7,283.8-463.3,647.2-954.6,722.9s-527.3-99.4-418.3-253.2s436.6-207.2,542.6-353.7s24.8-156.5-256.8-7.2
		S374.5,1181.7,385.2,968c10.7-213.7,580-300.2,639.7-432.7c19.5-43.4-18.2-66-57.5-63.7c-55.4,3.2-111.3,31.2-160.1,55.5
		c-91.3,45.4-183.2,86.3-281,115.6c-25.9,7.8-63.5,23.9-87.3,3.4C386.4,601,474.8,543.3,525.5,514z"></path><path fill="#D3C5F9" d="M1230 1505.6c-25.6 0-51.3-6.2-75.2-18.4-36.4-18.6-64.6-49.1-79.4-85.8-16.8-41.5-12-89.5 12.3-122.2 31.7-42.8 83.6-55.1 133.7-67 23.1-5.5 44.9-10.6 64.9-18.6 70.5-27.9 122.2-67.5 153.8-117.8 44.1-70.1 40-162.5-9.6-214.9-21-22.2-50.5-39.1-90.1-51.9-110.1-35.3-211-9.9-295.3 19.6l-5.1 1.8c-26.8 9.4-54.6 19.2-83.3 22-34.9 3.4-66.1-4.5-87.8-22.4-37.2-30.5-33.7-84.2-8.8-118.4 17.2-23.6 41.7-39.8 61.1-51.4 52.7-31.2 112.5-52.3 173.1-61.1 1.2-.2 2.2.6 2.4 1.8.2 1.1-.6 2.2-1.8 2.4-60 8.7-119.3 29.7-171.5 60.6-19.1 11.3-43.1 27.2-59.9 50.2-23.8 32.6-27.3 83.7 8 112.6 20.9 17.1 51 24.7 84.7 21.4 28.3-2.8 55.8-12.5 82.4-21.8l5.1-1.8c84.9-29.8 186.7-55.4 298-19.6 40.4 13 70.4 30.3 91.9 53 25.6 27 40.2 64.9 41.2 106.6 1 39.7-10.1 80-31.1 113.4-16.9 26.9-39.9 51.1-68.4 72-25.1 18.4-54.5 34.4-87.5 47.4-20.3 8.1-43.3 13.5-65.5 18.8-49.4 11.7-100.5 23.8-131.3 65.4-23.4 31.6-28 77.9-11.7 118.1 30.2 74.8 113.8 117.1 190.2 96.4 1.1-.3 2.3.4 2.6 1.5.3 1.1-.4 2.3-1.5 2.6C1257.3 1503.8 1243.7 1505.6 1230 1505.6zM1107.4 509.6c-.7 0-1.3-.3-1.7-.9-17.5-25.4-43-45.2-71.9-55.9-46.4-17.2-84.8-4.3-125.5 9.3-15.9 5.3-32.2 10.8-49.6 14.7-9.5 2.1-19.7 3.9-29.8 2.4-13.9-2-25.4-11.1-31-24.3-11.5-27.4 31.6-48.6 52.4-58.8 1.9-.9 3.6-1.8 5.2-2.6 31.7-16.1 65.1-29.6 99.1-40 1.1-.3 2.3.3 2.6 1.4.3 1.1-.3 2.3-1.4 2.6-33.8 10.4-66.9 23.7-98.4 39.7-1.5.8-3.3 1.6-5.2 2.6-19.6 9.6-60.3 29.7-50.3 53.4 5.1 12 15.2 19.9 27.7 21.8 9.5 1.4 19.2-.3 28.3-2.4 17.2-3.8 33.5-9.3 49.2-14.6 41.4-13.8 80.5-26.9 128.3-9.2 29.7 11 55.9 31.4 73.9 57.5.7 1 .4 2.3-.5 2.9C1108.2 509.5 1107.8 509.6 1107.4 509.6zM981.8 351.4c-.8 0-1.6-.5-1.9-1.2-.5-1.1 0-2.3 1.1-2.8 50.1-22.5 101.8-45.8 156.1-59.6 54.1-13.8 110.2-18 166.8-12.5 56.6 5.5 110.9 20.4 161.2 44.4 1 .5 1.5 1.8 1 2.8-.5 1-1.8 1.5-2.8 1-99.7-47.4-218.2-58.9-325.2-31.6-53.9 13.7-105.5 36.9-155.4 59.4C982.4 351.3 982.1 351.4 981.8 351.4zM1297.2 1470c-1 0-1.9-.8-2.1-1.8-.1-1.1.7-2.2 1.8-2.4 199.7-25.9 395.7-110.3 551.7-237.7 32.6-26.6 73.9-63.2 104.1-109.6 29.9-45.9 44.5-96.6 41.2-142.6-3.9-53.1-32.2-100.6-73.9-123.9-43.3-24.2-96.2-21.2-137.3-15.9-1.1.1-2.2-.7-2.4-1.8-.1-1.2.7-2.2 1.8-2.4 41.8-5.4 95.5-8.4 139.9 16.4 43 24 72.1 72.7 76.1 127.3 3.4 46.9-11.5 98.5-41.8 145.2-30.5 46.9-72.1 83.7-105 110.5-78.5 64.1-166.1 117.2-260.3 157.8-94.2 40.6-193 67.8-293.5 80.8C1297.4 1470 1297.3 1470 1297.2 1470z"></path><g><path fill="#FFB2A8" d="M1105.1,365.8c97.2,13.4,89.8-72.2,89.8-72.2s-20.2-11.4-20.4-17.9c-0.1-6.1,9.2-40.9,10.6-44.8
							c-2.7,1.1-4.7,1.6-4.7,1.6s0,0,0,0.1c-0.6,1.2-10.4,20.3-14.3,26.4c-2.6,4-23.9,6.1-40.3,6.2c-0.3,4.4-0.9,8.4-2.1,10.7
							c-4,7.5-18.9,13.8-18.9,13.8S1082.5,362.7,1105.1,365.8z"></path><path fill="#F27C85" d="M1120.9,292c-1.8,5.6,33.6-15.3,42.6-25.1c8.7-9.5,16.3-32.8,16.8-34.3c-0.6,1.2-10.4,20.3-14.3,26.4
					c-2.6,4-23.9,6.1-40.3,6.2C1128.5,269.8,1122.7,286.4,1120.9,292z"></path><path fill="#221E54" d="M1214.1 217.9c7.2-3 12.7-9.3 14.9-16.9 2.2-7.6.8-16-3.7-22.4-5.2-7.5-13.5-11.4-21.6-15.2-1.5-.7-3.1-1.4-4.5-2.2-8.1-4-17.9-10.8-18.8-20.9l-3.2.3c1 11.6 11.7 19.2 20.6 23.6 1.5.7 3.1 1.5 4.6 2.2 7.7 3.6 15.6 7.3 20.3 14.1 3.8 5.6 5.1 13.1 3.2 19.6-1.9 6.5-6.8 12.2-13 14.7L1214.1 217.9zM1077.6 196.5c.9 2.5 1.9 4.7 2.7 6.5.7-5.2.8-10.4.2-15.6-.2-2-.6-4-1-5.9l0 0c0 0 0-.1 0-.1l-3.2.8C1077.3 186.8 1077.8 191.6 1077.6 196.5zM1095.6 260.7c0 0 .1.1.1.1.7.9 1.3 1.8 1.8 2.8 2.2-2.4 4-5.3 5.3-8.5l-3-1.2C1098.8 256.5 1097.3 258.8 1095.6 260.7z"></path><path fill="#221E54" d="M1175.8,234.7c0.2,1.5,0.5,3.1,0.8,4.8c0.3,1.4,0.6,2.9,1,4.4c0.4,1.6,0.9,3.2,1.4,4.8
					c0.2,0.5,0.3,1,0.5,1.6c1.2,3.8,2.7,7.8,4.4,11.7c0.7,1.5,1.4,3.1,2.1,4.6c2.6,5.3,5.7,10.6,9.2,15.4c0,0,0,0,0,0
					c3,4.1,6.3,8,10,11.3c0.7,0.6,1.4,1.2,2.1,1.8c0.6,0.5,1.2,0.9,1.7,1.4c4.5,3.4,9.5,6,14.8,7.4c1,0.3,2.1,0.5,3.2,0.7
					c1.2,0.2,2.5,0.3,3.8,0.4c3.5,0.2,7.2-0.1,11-1.1c0.6-0.1,1.2-0.3,1.9-0.5c0.9-0.3,1.7-0.5,2.6-0.8c1.2-0.4,2.4-0.8,3.6-1.2
					c7.2-2.7,12.9-6,17.5-9.5c21.4-16.8,17.4-40.3,17.4-40.3s-30.6,9.9-41.7,1.3c-4.4-3.5-5.8-9.9-0.9-21c1.3-2.9,2-5.5,2.3-7.8
					c1.5-10.9-6.3-16.6-16.8-19.5c-1.1-0.3-2.1-0.6-3.2-0.8c-3.3-0.7-6.8-1.2-10.4-1.5c-5.7-0.5-11.4-0.5-16.4-0.3l0,0
					c-0.6,0-1.1,0-1.7,0.1c-0.1,0-0.2,0-0.2,0l0,0c-1,0-1.9,0.1-2.8,0.2c-0.8,0-1.6,0.1-2.3,0.1c-4.6,0.3-7.7,0.7-8,0.8l0,0
					c0,0,0,0,0,0s0,0,0,0l0,0c-0.1,0.5-1.1,6.5-5.6,18.4v0c0,0,0,0,0,0c-0.3,0.7-0.5,1.5-0.8,2.2l0,0c0,0,0,0,0,0
					c-0.4,1-0.6,2.3-0.7,3.8C1175.3,229.4,1175.5,231.9,1175.8,234.7z M1221.2,213.5c-0.8-0.8-1.6-1.5-2.5-2.3
					c-1.7-1.4-3.6-2.7-5.8-3.9c-1.7-0.9-3.6-1.7-5.6-2.3c0,0,2.5,0,6.1,0.2c2.7,0.2,6.1,0.5,9.5,1.1c1.1,0.2,2.3,0.4,3.4,0.7
					c6.3,1.5,12.1,4.3,13.6,9.1c0.9,2.9,1,5.8,0.6,8.4c-1.2,7.9-6.6,13.8-7.4,13.6c-0.5-0.1-1.2-5.4-3.9-11.8
					C1227.7,222.1,1225.1,217.5,1221.2,213.5z"></path><path fill="#221E54" d="M1082.3,228.6l43.5,12.4l0.8,0.2l1.6,0.5l43.4,12.4c0,0,0,0,0,0l0,0c0.2-0.1,1.4-0.6,3.2-1.5
					c1.6-0.8,3.6-1.8,5.9-3c1.5-0.8,3.1-1.8,4.7-2.8c0,0,0,0,0,0c7.4-4.6,15.8-11.2,19.8-18.9c1-1.9,2.1-4.3,3.2-7.1
					c0.8-1.9,1.6-4.1,2.3-6.4c3.5-10.8,6.3-25.3,4.5-40.9l0,0c-0.2-1.5-0.4-2.9-0.6-4.4l0,0c-2.4-14.1-8.8-28.8-22-42.3
					c-37-38-90.6-6.2-90.6-6.2s0,0,0,0c-0.9,0.2-30.3,6-30.7,37.9c-0.2,16.4,3,29.3,6.2,37.9c0.9,2.5,1.9,4.7,2.7,6.5
					c0.8,1.6,1.4,2.9,2,3.9c0.9,1.6,1.5,2.4,1.5,2.4L1082.3,228.6z"></path><path fill="#FFF" d="M1185.5,246.8c0.5,0.3,1,0.7,1.6,1c2.8-0.2,6.3-1.7,10.4-6.1c8.6-9.1,13.3-19.3,14.3-24.1
					c0.2-1.1,0.1-2.1-0.1-2.9c-0.4-0.3-0.7-0.4-0.7-0.4c-2.8-2.5-8.8,14.8-13.5,20.9C1192.8,241.3,1182.7,244.8,1185.5,246.8z"></path><path fill="#FFB2A8" d="M1086.6,248.2c9.8,23.6,16.9,27.9,17.1,28.1c0,0,0,0,0,0c1.8,1.9,4.5,3,9.1,2.6c0,0,0.1,0,0.1,0
							c3.1-0.4,6.7-1,10.6-1.7c18.9-3.6,43.2-10.3,45.2-15c0.4-0.9,0.9-2.1,1.4-3.4c0.1-0.2,0.2-0.4,0.2-0.6
							c0.1-0.3,0.2-0.5,0.3-0.8c0.1-0.3,0.3-0.7,0.4-1.1c0.3-0.7,0.5-1.4,0.8-2.2l0,0c0.4-1.2,0.9-2.4,1.3-3.7
							c0.1-0.2,0.1-0.4,0.2-0.6c0.4-1.2,0.8-2.5,1.3-3.7c0.1-0.4,0.3-0.8,0.4-1.2l0,0c0.2-0.6,0.4-1.2,0.6-1.8
							c0.1-0.2,0.2-0.5,0.2-0.7c0.1-0.3,0.2-0.7,0.3-1c0.1-0.2,0.1-0.4,0.2-0.6c0.1-0.2,0.1-0.4,0.2-0.6c0.2-0.7,0.5-1.4,0.7-2.1
							c0.1-0.2,0.2-0.5,0.2-0.7c0.1-0.3,0.2-0.6,0.3-1c0-0.1,0-0.2,0.1-0.2c0.2-0.6,0.4-1.1,0.5-1.5c0,0,0,0,0-0.1
							c0.1-0.3,0.2-0.7,0.3-0.9c0,0,0,0,0-0.1c0.3-0.8,0.5-1.4,0.5-1.6c0,0,0-0.1,0-0.1c0,0,0,0,0,0s2.2-1,5.1-2.7
							c2.9-1.7,6.5-4.2,8.8-7l0,0c0,0,0,0,0,0c1.5-1.8,2.5-3.8,2.5-5.9c-0.2-8.1,3.3-19.6-4.8-21.8c-1.5-0.4-3-0.2-4.4,0.4
							c-0.6,0.3-1.1,0.6-1.6,0.9c-0.2,0.1-0.4,0.3-0.6,0.5c-0.4,0.3-0.8,0.6-1.2,1c-0.1,0.1-0.3,0.2-0.4,0.4c0,0-0.1,0.1-0.1,0.1
							c-0.2,0.2-0.3,0.3-0.5,0.5c0,0-0.1,0.1-0.1,0.1c-0.2,0.2-0.3,0.3-0.5,0.5c-0.2,0.2-0.4,0.4-0.6,0.6c-0.3,0.4-0.7,0.7-1,1.1
							c-0.1,0.1-0.1,0.1-0.2,0.2c-1,1-1.9,2.1-2.8,3.1c0,0,0,0,0,0c0,0-0.1,0.1-0.1,0.1c0,0,0,0,0,0c-1.3,1.3-2.6,2.4-3.8,3.1
							c0,0,0,0-0.1,0c0,0,0,0,0,0c0,0-0.1,0-0.1,0c-0.5,0.3-0.9,0.4-1.4,0.5c-1.7,0.5-3.5,0.8-5.3,0.9c-9.9,0.4-20.1-5.4-28.8-12.6
							c0,0,0,0,0,0c-3.2-2.7-6.2-5.6-9-8.4c0,0,0,0,0,0c-8.5-8.8-14.2-17-14.2-17c-0.7-1-4.8-1.5-5.4-2.5c0,0-19.3,13.4-28.4,3.9
							c-0.4,2.7-0.7,5.6-0.7,8.4c-0.1,0.4-2.6,9.8,0.4,16.4C1082.9,203.4,1076.5,224.1,1086.6,248.2z"></path><path fill="#221E54" d="M1095.2 206.3c.2 3.5-1.2 6.5-3.1 6.6-1.9.1-3.5-2.7-3.7-6.3-.2-3.5 1.2-6.5 3.1-6.6C1093.4 199.9 1095.1 202.7 1095.2 206.3zM1085 194.6c-.3.2 2.5-4.5 4.6-5.1 2.1-.5 4.2-.9 4.9.4.7 1.3 1.4 3.2.1 3.2C1093.4 193.2 1088 192.5 1085 194.6z"></path><path fill="#FFF" d="M1095.7,202c0.1,1.2-0.7,2.2-1.7,2.2c-1,0-1.8-0.9-1.9-2.1c-0.1-1.2,0.7-2.2,1.7-2.2
					C1094.9,199.9,1095.7,200.8,1095.7,202z"></path><path fill="#221E54" d="M1133.4 203.7c.4 3.3-1 6.3-3.1 6.6-2.1.3-4.2-2.2-4.6-5.6-.4-3.3 1-6.3 3.1-6.6C1130.9 197.9 1133 200.4 1133.4 203.7zM1125 188.7c0 0-.4 2.7.1 3.4.6.7 3.4-.4 6.5 1.2s5.9 2.8 5.9 2.8-1.7-4-3.8-6.2S1125.2 186.3 1125 188.7z"></path><path fill="#FFF" d="M1133.9,200.3c0,1.1-0.8,2.1-1.9,2.1c-1.1,0-2.1-0.8-2.1-2c0-1.1,0.8-2.1,1.9-2.1
					C1132.9,198.3,1133.8,199.2,1133.9,200.3z"></path><path fill="#CE4556" d="M1120.1,253.4c-1.4,0.9-2.9,1.8-4.7,2.4c-4.7,1.7-9,0.8-12-1.9c-2.4-2.1-4-5.2-4.5-8.9
					c-0.2-1.4,0.8-2.6,1.9-2.4c0.1,0,0.2,0,0.3,0.1c2,0.8,5.2,1.7,9.5,1.7c5.7-0.1,13-3.1,16.1-3.5c1.1-0.1,1.7,0,1.6,0.8
					C1127.8,243.9,1125.8,249.6,1120.1,253.4z"></path><path fill="#FFF" d="M1126.7,240.9l-0.6,2.5c-0.1,0.6-5.7,3.4-12.8,3.7c-7.1,0.2-11.1-1.4-12-1.8c-0.4-0.2-0.6-1.4-0.6-2.7
					c0.1,0,0.2,0,0.3,0.1c2,0.8,5.2,1.7,9.5,1.7C1116.3,244.3,1123.5,241.3,1126.7,240.9z"></path><path fill="#F27C85" d="M1120.1,253.4c-1.4,0.9-2.9,1.8-4.7,2.4c-4.7,1.7-9,0.8-12-1.9c2.3-3.2,6.7-4.7,11.1-3.6
					C1116.7,250.9,1118.6,252,1120.1,253.4z"></path><path fill="#FFF" d="M1186.4 194.9c-3.5 1.6-6.7 5.9-9.8 9C1179.2 201.8 1182.7 198.7 1186.4 194.9zM1172.6 207.1c0 0 .1 0 .1 0 0 0 0 0 0 0C1172.6 207.1 1172.6 207.1 1172.6 207.1z"></path><path fill="#F27C85" d="M1107.6,209.9c2.2,2.2,4.1,4.8,3,8.1c-1.1,3.4-8.5,8.4-2.2,11.1c1.8,0.8,0.4,3.6-1.4,2.8
					c-3-1.3-4.8-4.4-3.9-7.7c1.3-4.8,7.6-6.8,2.4-12C1104.1,210.8,1106.2,208.5,1107.6,209.9L1107.6,209.9z"></path><path fill="#FFF" d="M1185.5,246.8c0.5,0.3,1,0.7,1.6,1c2.8-0.2,6.3-1.7,10.4-6.1c8.6-9.1,13.3-19.3,14.3-24.1
					c0.2-1.1,0.1-2.1-0.1-2.9c-0.4-0.3-0.7-0.4-0.7-0.4c-2.8-2.5-8.8,14.8-13.5,20.9C1192.8,241.3,1182.7,244.8,1185.5,246.8z"></path><path fill="#221E54" d="M1106.6,120.4c0,0-24.7-0.2-37.8,18c-13.2,18.2-9.6,47-8.3,46.1c1.4-0.9,4.3-10.6,4.3-10.6
					s0.5,9.3,0.8,10.2c0.3,0.8,11.9,0.2,12-0.6c0.2-0.9,3.9-7.6,3.9-7.6s-0.8,5.2,0,6.1c0.8,0.9,13.3,0.4,14.1-0.2
					c0.8-0.6,2.8-8.4,2.8-8.4s-0.5,5.9,0.4,6.4c0.9,0.6,4.5,0.4,4.5,0.4s0.9-7.3,8.4-17.4C1119.4,152.6,1154.9,124.9,1106.6,120.4z"></path><path fill="#473F8B" d="M1202.8,291.9c0,0,24.4,7.5,35.6,20c11.2,12.5,37.7,51.2,46.7,55.3c9.1,4.2,68.6,45.1,68.6,45.1
			s0.7,17.7-9.3,21c-10,3.2-59.3-3.3-59.3-3.3s-35.4-23.6-44-31.4c-8.6-7.8-36.3-36.4-36.3-36.4L1202.8,291.9z"></path><path fill="#F078A5" d="M1493.6,384.7c-4.6-10.1-7.2-21-8.5-31.7c-2.3-19-0.5-37.4,1.4-49.5c1.4-8.8,2.8-14.3,2.8-14.3
			c-6.3-13.8-29-10.5-50.1,1.2c-5.8,3.2-11.5,7.1-16.7,11.4c-16.1,13.5-27.3,31.4-22.1,48.2c4,12.8,4.4,24.1,3.2,33.7
			c-2.9,21.6-14.6,34.1-14.6,34.1l19.7,65.9l103.4-58.1C1512.2,425.7,1512.2,425.7,1493.6,384.7z"></path><path fill="#FFB2A8" d="M886.7,222.3c-1,1.2,0,2.9,0.5,3.8c0.5,1,15.7,22.8,17.3,25.4c1.6,2.7,0.7,3.2-0.7,2.4
					c-1.4-0.9-13.1-9.4-16-11.3c-2.9-2-5.7-5.4-7.3-3.8c-1.6,1.7-0.6,4.1,0.5,5.1c1.1,1,15.4,13.6,17.3,16.3
					c1.9,2.7,1.8,7.3,8.2,16.1c6.4,8.8,13.7,13.6,16.1,16.7c1.7,2.2,6.8,12.2,12.2,23.6l28.1-18.3c-3.9-4.9-6.7-8.9-7.7-11.1
					c-3.6-8.3-2.9-13-1.8-16.8c1.1-3.8,0.4-12.3,3.6-17.9c3.2-5.6,7.7-13.8,5.1-14.1c-2.6-0.3-7.1,2.4-9.4,5.1
					c-2.4,2.7-9.8,10.2-9.8,10.2s-4.5-10.3-6.7-20.5c-2.3-10.2-3.5-21-4.7-22.8c-1.2-1.8-1.4-2.8-3.1-1.8c-1.6,1-2.6,4.1-3,5.4
					c-0.4,1.4-0.4,23.9-1.6,22.2c-1.2-1.8-5.1-6.2-8.2-11.8c-3.1-5.7-9.2-14.1-10.4-14.8c-1.2-0.7-3.2-1.6-4.4-0.6
					c-1.2,1.1-1.9,2.3-2,3.2c-0.1,0.9,15.2,31,13.8,29.7c-1.4-1.4-3.1-1.9-8.9-8.1c-5.8-6.2-12.9-13.5-14.1-13.2
					C888.5,221.1,887.7,221,886.7,222.3z"></path><path fill="#F27C85" d="M899.9 257.8l2.2 1.6c3.8-5 7.8-10.2 12.6-14.4 5.2-4.6 10.9-7.4 16.5-8.1l-.3-2.7c-6.1.7-12.3 3.8-17.9 8.7C907.9 247.4 903.9 252.7 899.9 257.8zM934 281l2.7.1c.1-6.3 1.1-12.6 2.8-18.7.8-3 2-6.4 4.4-8.6l-1.8-2c-2.9 2.7-4.2 6.5-5.2 9.8C935.1 267.9 934.1 274.4 934 281z"></path><path fill="#F23868" d="M1902.8,1197.9c0,0-22.8,33.4-63,52.5c-4.6,2.2-9.4,4.2-14.4,5.9c-29.6,10.3-57.4,3.6-79.5-10.8
				c-3.7-2.4-7.2-5-10.6-7.8c-9.9-8.2-18.3-17.8-24.7-27.9c-11.1-17.3-22.4-25.1-35-22.6c-12,2.4-25.3,14-40.8,35.4
				c-30.6,42.1-72.3,59.9-125.1,70.7c-2.3,0.5-4.6,0.9-6.9,1.4c-55.4,10.5-79.5-25.8-115.4-55.8c-0.5-0.4-0.9-0.8-1.4-1.1
				c-36.7-30.2-56.7,16.1-116.7,47.1c-26.4,13.6-41,13.6-51.4,6.9c-13.3-8.6-19.9-28.1-35.3-44.3c-0.7-0.7-1.4-1.4-2.1-2
				c-1.8-1.6-3.7-3-5.6-4.2c-29.1-17.4-75.8,8.8-81.3,4.3c-6-5,22.9-76.2,75.5-227.7c31.1-89.7,44-227.3,49.2-324.7
				c3.6-67,3.7-115,3.7-115c19-211.1,497.5-66.7,497.5-66.7s58,114.1,89.5,207.9C1840.4,813.4,1902.8,1197.9,1902.8,1197.9z"></path><path fill="#C1277F" d="M1202.7 1088.7c-8.8 59.7-16.6 115.3-22.4 157-1.8-1.6-3.7-3-5.6-4.2C1182.1 1202.4 1192.1 1148.1 1202.7 1088.7zM1202.7 1088.7c15.4-104.6 33.5-221.9 48.4-298.8C1240.9 869.3 1221 986.4 1202.7 1088.7z"></path><path fill="#C1277F" d="M1902.8,1197.9c0,0-22.8,33.4-63,52.5c-52.2-160.1-81.2-481.2-88.9-490.1c-9.4-10.9-85.8,32.1-87.3,62.2
				c-1.1,22.6,56.1,292.8,82.3,423.2c-3.7-2.4-7.2-5-10.6-7.8c-25.4-127.5-78-387.7-89-408.9c-14.6-28.2-33-11.3-41.2,27.4
				c-5.5,26,40.1,212.2,70.5,331.1c-12,2.4-25.3,14-40.8,35.4c-30.6,42.1-72.3,59.9-125.1,70.7c-20.9-78.4-55.8-206.5-63.5-220
				c-6.1-10.5-34.2,79.9-58.8,165.6c-0.5-0.4-0.9-0.8-1.4-1.1c-36.7-30.2-56.7,16.1-116.7,47.1c-26.4,13.6-41,13.6-51.4,6.9
				c5.1-32.2,12.6-79.9,23.8-150.9c33.3-211.7,54.1-426,33.3-435.5c-5-2.3-13.6,31.5-23.7,84.3c6.2-48.1,8.9-82.3,5.5-91.1
				c-5.3-13.7-20.6-12.6-38.4-5.4c3.6-67,3.7-115,3.7-115c19-211.1,497.5-66.7,497.5-66.7s58,114.1,89.5,207.9
				C1840.4,813.4,1902.8,1197.9,1902.8,1197.9z"></path><path fill="#FF6675" d="M1510.1,380.2c0,0,81.1-5.7,162.9,74.7c81.8,80.4,116.1,130.8,151.9,248.6
				c35.9,117.8,43.6,283.7,95,377.3c43.3,78.8,125.5,131.1,150.4,145.7c4.4,2.6,6.3,8.1,4.5,12.9c-6.7,17.7-26.2,57.2-70.3,72.2
				c-33.4,11.4-50,16.1-58,18c-4.2,1-8.6-0.8-11-4.5c-13.5-21.2-60.1-100-102.3-236.9c-50-162.2-28.8-321.5-72.8-454.8
				c-44-133.4-167.5-213.2-221.1-231.7c-53.6-18.6-85.4-10.7-85.4-10.7L1510.1,380.2z"></path><path fill="#FFB2A8" d="M1745,1828.6H1641c-20.6-1.5-16.8-23.7-16.4-25.4v0c0,0,0-0.1,0-0.1c4.1-14.7,9.3-31.4,12.2-42.2
				c3.9-14.7,5.7-16.4,5.4-20.8c-0.1-0.9-0.2-1.9-0.4-3.2c-1.4-7.6-9.7-61.1-9.7-61.1l69.8-26.6c0,0-0.7,61.2,2,69.4
				c0.8,2.6,2.9,6.8,5.6,11.7c6,10.9,14.8,25.3,18.7,32.1c5.6,9.9,24.2,36.9,25.6,38.5c0,0,0.1,0.1,0.1,0.2c0.2,0.3,0.6,1.1,1,2
				c0.1,0.2,0.2,0.5,0.3,0.7c0.1,0.3,0.3,0.6,0.4,1c0.1,0.2,0.1,0.4,0.2,0.5c0.4,0.9,0.8,1.9,1.2,3.1v0
				C1758.2,1823.2,1745,1828.6,1745,1828.6z"></path><path fill="#2B2468" d="M1745 1828.6H1641c-20.6-1.5-16.8-23.7-16.4-25.4v0c0 0 0-.1 0-.1 4.1-14.7 9.3-31.4 12.2-42.2 3.9-14.7 5.7-16.4 5.4-20.8.8.1 1.4.3 2 .5 6.2 3 11.1 3.6 11.2 1.6.1-1.9-2-7 .5-10.4 2.4-3.4 40.2-12.5 42.3-9.9 2.1 2.6 3.7 10 9 9.1.7-.1 1.5-.4 2.4-.8 6 10.9 14.8 25.3 18.7 32.1 5.6 9.9 24.2 36.9 25.6 38.5 0 0 .1.1.1.2.2.3.6 1.1 1 2 .1.2.2.5.3.7.1.3.3.6.4 1 .1.2.1.4.2.5.4.9.8 1.9 1.2 3.1v0C1758.2 1823.2 1745 1828.6 1745 1828.6zM1304.9 1821.3c-.3 3.8-6 4.7-6.5 4.7-.5 0-34.5.5-34.5.5l-7-19.1c0 0-5.7 20.5-8.3 19.3-2.6-1.1-145.3 1.9-145.3 1.9s-10.5-6-10.7-22.2c-.2-16.2 14.3-21.7 17.3-21.8 3 0 30.2-2.3 49.9-9.9 19.7-7.6 37.8-24.7 42.5-32.9 4.8-8.1 8-12.8 10.7-13.2 2.3-.4 8.1-1.6 9.7-2 4.6 2.7 9.5 6 14 10.1 13.6 12.5 22.7 19.3 35.7 14.9 6-2 13.8-2.2 20.6-1.7 2.4 5.1 9.9 19 11.5 28.2C1305.9 1787.4 1305.2 1817.4 1304.9 1821.3z"></path><path fill="#FFB2A8" d="M1292.7,1749.9c0,0,0,0.1,0.1,0.1c-6.8-0.5-14.6-0.4-20.6,1.7c-13,4.4-22.1-2.4-35.7-14.9
				c-4.5-4.1-9.4-7.5-14-10.1c0.2,0,0.4-0.1,0.4-0.1l1.1-61.3l73-16.2c0,0-7,59.7-7.3,70.9
				C1289.5,1731.1,1290.4,1744.9,1292.7,1749.9z"></path><path fill="#2B2468" d="M1300.7,851.6c0,0-17.3,24.1-25.9,80.3c-8.6,56.2-32.1,251-34.2,285.6c-2.1,34.6-11.3,67.7-12.2,74
				s-14.4,80.2-14.2,153.9c0.2,73.7-1.5,133.4-2.2,148.1c-0.6,14.7-15.3,82.5-12.9,84.3s50.2,24.7,56.1,24.9
				c5.9,0.3,53.2-4.6,56.2-16.6c3-12,26.6-110.6,28-201.5c1.4-90.9,11.8-156.3,12.8-159.7c1-3.4,36.9-95.4,55.2-167.4
				c18.2-72,36-151.8,36-151.8s33.7,174.7,55.2,222.4c21.5,47.7,43,94.6,45.2,102.5c2.2,7.9,8.3,119.9,16.9,153.2
				c8.7,33.3,24.1,84.2,32.7,119.2c8.6,35,17.2,88.2,22.2,90.2c5,1.9,30.7,10.9,41.8,6.1s52.5-9,53.8-17.6
				c1.2-8.6-19.6-266-41.3-328.4c-21.7-62.4-24.5-101.6-25.7-111.1c-1.1-9.6-21.5-311.4-63.3-378.5S1312.5,799.5,1300.7,851.6z"></path><path fill="#473F8B" d="M1412.2 993l-1.9 2.8c.8.6 15.7 11.2 45.7 12.5 9.2.4 19.8-.1 31.9-2l-.5-3.4C1437.4 1010.9 1412.4 993.2 1412.2 993zM1433.6 913.2l.7 58.4c-4.9 1.3-11 2.2-18.4 1.9l-.1 3.4c21.2.9 33-7.8 33.5-8.2l-1.9-2.7c-.1 0-3.5 2.5-9.8 4.6l-1.3-110.2-3.3 0 .6 49.3c-2.2-.5-4.1-1.7-5.9-3.6-10.5-11.9-9-46-8.9-46.3l-3.3-.2c-.1 1.5-1.7 35.8 9.8 48.8C1427.6 911.1 1430.4 912.7 1433.6 913.2zM1679.5 1430.7c-6.4-40.7-20.3-95.8-28.6-128.6-3.1-12.1-5.5-21.6-6.4-26-3.1-15.1-23.2-142.4-33.8-239.3-10.4-94.9-42.3-176.5-42.6-177.3l-3 1.3c.3.8 32.1 82 42.4 176.4 10.6 97 30.7 224.5 33.8 239.6.9 4.5 3.2 13.6 6.4 26.2 8.3 32.8 22.2 87.7 28.6 128.3 8.7 55.1 25.4 254.5 25.6 256.5l3.3-.3C1704.9 1685.5 1688.2 1486 1679.5 1430.7z"></path><path fill="#FFF" d="M1745 1828.6h-99.4C1672.5 1826.8 1745 1828.6 1745 1828.6zM1294.1 410.6c0 0-34.4 14.8-58.6 42.1-24.2 27.4-83.2 77.9-106.8 100.8-23.6 23-66.5 65.2-66.5 65.2s108.1 46 119.6 35.3c11.5-10.7 112.3-84.2 112.3-84.2L1294.1 410.6z"></path><path fill="#473F8B" d="M1562.6,858.7l-249.3-2.7c-5.2-0.1-9.4-4.4-9.3-9.6l0.7-31.6l268.4,5.7l-0.6,28.6
			C1572.3,854.5,1567.9,858.8,1562.6,858.7z"></path><path fill="#FFF" d="M1497.3,380c3.2,1.1,88,23.9,104.4,34.9c16.4,11.1,23.6,23,23.9,38.1c0.2,15-41.5,148.8-47.7,176
			c-6.2,27.2-14.9,95.2-15.1,102.7c-0.2,7.5,16.7,73.3,13.1,88.3c-3.5,14.9-38.1,25.5-137.9,27.1c-99.8,1.6-132.5-0.7-139-20.7
			c-6.5-20,1.2-32.2,1.5-46.1c0.3-13.9-10.3-119.8-9.9-139.1c0.4-19.3-10.8-71-11.1-83.4c-0.3-12.3-15.2-116.7-1.4-135.2
			c13.8-18.5,89.5-38.9,89.5-38.9l57.1,13.9L1497.3,380z"></path><g><path fill="#E5DEFC" d="M1372.5,397.9c0,0,24.4,84.6,23.4,85.9c-1,1.2-0.4,195.9,3.6,237c4,41,9.7,97.2,11.2,100.8
				c1.5,3.6,22.8,22.2,27.7,22.3c4.9,0.1,40.2-31.5,40.7-41.7c0.5-10.2-30.1-160.6-34.2-194.2c-4.1-33.6,3.8-129.5,4-136.6
				s64.7-86.7,64.7-86.7s-74.2,38.3-94.2,34.4C1399.5,415.1,1372.5,397.9,1372.5,397.9z"></path><path fill="#473F8B" d="M1464.8,795.5l-33.9,36.8l-40.3-32.5c0,0-2.6-203.6,8.8-303.3c1.7-14.5,3.6-26.8,5.9-36l31.2-3.6
				c0,0-0.1,7.6-0.1,20.3c0,42.9,0.8,143.8,7.5,203.5C1452.7,758.3,1464.8,795.5,1464.8,795.5z"></path><path fill="#2B2468" d="M1436.6,477.3c-11.3,7.4-23.7,14.1-37.1,19.3c1.7-14.5,3.6-26.8,5.9-36l31.2-3.6
				C1436.6,457,1436.6,464.6,1436.6,477.3z"></path><path fill="#473F8B" d="M1393.3,410.5c0,0,3.5,53,9.5,57.8c6,4.8,31.4,3.2,34.7,0.7c3.3-2.4,21.9-55,21.9-55l-34-14L1393.3,410.5
				z"></path></g><path fill="#E5DEFC" d="M1467.6,526.4c0.1-4.3,3.9-7.5,8.1-6.8c6.2,1,15.6,2,26.6,1.5c19.9-0.9,39.2-2.9,40.8-0.2
			c1.6,2.7-2.8,55.2-6.9,61.3c-4.2,6.1-36.2,23.4-42.6,21.6c-6.4-1.7-24.4-13.1-25.9-16.9C1466.5,584,1467.2,544.1,1467.6,526.4z"></path><g><path fill="#E5DEFC" d="M1570.1,482.5c0,0-15.9,43.6-13.8,87.5c2,43.9,12.1,100.1,12.1,100.1s-72-52.8-78.1-47.7
				c-6.1,5.1,9.5,12.3,35.7,26.9c26.2,14.6,42.4,22.5,42.4,22.5s-9.7,32.7-13.4,30.8c-3.7-1.9-32-24.2-49.4-42.2
				c-17.3-18-32.9-34.1-32.9-34.1s67.5,92.1,70.8,103c3.3,10.9,7,38.1,7,38.1s-11.6,52.4-25.4,52.1c-13.7-0.3-65.2,26.9-65.2,26.9
				s57.6-1.6,78.1-7c20.4-5.4,35.7-6.7,36.7-15.9c1-9.2-6.3-60.9-9-74.9c-2.6-14-2.8-15.3-2.8-15.3l8.2-66.7c0,0,7.1-39.8,8.8-45.8
				c1.6-6,18.5-63.4,18.5-63.4L1570.1,482.5z"></path><path fill="#FFB2A8" d="M1620.5,748.7c0,0-27.2,9.7-29.9,9.8c-2.7,0.1-17.6,0.4-22.8-0.5c-5.2-0.9-14.8-1.6-17.5-0.4
						c-2.7,1.2-3.8,12.4-3.8,12.4s-8.1,6.7-8.5,11.9c-0.4,5.2,5.9,9.2,5.9,9.2s-4.5,4.9-1.4,9.5c3.1,4.6,7.1,5.8,7.1,5.8
						s-0.8,7.2,1.2,9.3c2,2.1,11.1,3.4,11.1,3.4s0.4,5.8,4.4,7.8c4,2,9.3,1.4,9.3,1.4s18.3-5.2,24.8-9.2c6.5-3.9,16.3-18.9,24.2-25
						c7.9-6.1,16.2-9.8,16.2-9.8L1620.5,748.7z"></path><path fill="#FFF" d="M1603.4,416.6c0,0-50.6,56.9-27,107.5c23.6,50.6,62.9,69.6,68.7,81.2s14.6,18.6,24.4,29.8
				c9.8,11.3,20,17.6,19.9,23c-0.1,5.4-12.9,20.1-25.9,39.5c-12.9,19.4-25.5,33.4-37.2,39.6c-11.7,6.2-15.7,7.2-15.4,10.4
				c0.3,3.2,23.4,43.8,28.7,45.7c5.3,1.9,14.7-2.5,19.1-5.3c4.4-2.8,42.2-17.7,73.7-50.3c31.4-32.6,47.5-46.2,52.7-54.3
				s8.1-10.9,6.1-18.8c-2-7.9-7.6-12.7-8.9-16.8c-1.3-4.1-61.9-115-103.3-162.6C1637.6,437.6,1603.4,416.6,1603.4,416.6z"></path><path fill="#D3C5F9" d="M1688.9,660.4l-0.9-1.6c0-0.1-4-6.9-19.6-22.6c-7.1-7.1-11.6-13.4-15.9-19.4
				c-5.4-7.5-10.5-14.7-20.2-22.4c-17.4-13.9-43.6-45.7-43.9-46c-23.6-28.6-22.2-58.3-16.9-78.1c5.7-21.4,16.8-35.8,17.3-36.4
				c0.5-0.7,1.5-0.8,2.2-0.3c0.7,0.5,0.8,1.5,0.3,2.2c-0.1,0.1-11.2,14.6-16.8,35.4c-7.4,27.7-1.9,53,16.3,75.2
				c0.3,0.3,26.3,31.8,43.4,45.5c10,8,15.2,15.3,20.7,23c4.2,5.9,8.6,12.1,15.6,19c12.1,12.1,17.3,19,19.2,21.8
				c6.9-4.7,37.5-23.9,65.8-13.9c0.8,0.3,1.3,1.2,1,2c-0.3,0.8-1.2,1.3-2,1c-29.9-10.5-64,14.2-64.3,14.5L1688.9,660.4z"></path></g><g><path fill="#D3C5F9" d="M1360,728.9c-0.5,0-1-0.3-1.3-0.8c-46.3-76.6-56.7-162.4-56.8-163.3c-0.1-0.9,0.5-1.6,1.4-1.7
				c0.9-0.1,1.6,0.5,1.7,1.4c0.1,0.9,10.4,86.1,56.4,162c0.5,0.7,0.2,1.7-0.5,2.2C1360.6,728.8,1360.3,728.9,1360,728.9z"></path><path fill="#FFF" d="M1352.1,673.5c-0.5,0-1.1-0.3-1.3-0.8l-20.2-35.3c-0.4-0.8-0.2-1.7,0.6-2.1c0.8-0.4,1.7-0.2,2.1,0.6
				l20.2,35.3c0.4,0.8,0.2,1.7-0.6,2.1C1352.6,673.4,1352.4,673.5,1352.1,673.5z"></path><path fill="#D3C5F9" d="M1533.9,689.2c-0.4,0-0.8-0.2-1.1-0.5l-78.6-81.6c-0.6-0.6-0.6-1.6,0-2.2c0.6-0.6,1.6-0.6,2.2,0
				l78.6,81.6c0.6,0.6,0.6,1.6,0,2.2C1534.7,689,1534.3,689.2,1533.9,689.2z"></path></g><rect width="57.2" height="17.9" x="1400.7" y="843.6" fill="#D3C5F9" transform="matrix(.9998 .02131 -.02131 .9998 18.496 -30.27)"></rect><path fill="#D3C5F9" d="M1284.8,607.9c-0.7,0-1.4-0.6-1.5-1.3c-11.8-69.3-12.7-147-12.7-147.8c0-0.9,0.7-1.6,1.6-1.6
			c0.9,0,1.6,0.7,1.6,1.6c0,0.8,0.9,78.2,12.6,147.3c0.1,0.9-0.4,1.7-1.3,1.8C1285,607.9,1284.9,607.9,1284.8,607.9z"></path><g><path fill="#473F8B" d="M1109.3,283.8l3.6-1.5c0,0,27.9,41.5,53.2,42c25.3,0.5,23.3-37.6,23.3-37.6l4,3c0,0,27.6,62.4-11.7,75.8
				c-39.3,13.5-62.5-11.6-69.8-32.7C1104.6,311.8,1109.3,283.8,1109.3,283.8z"></path><path fill="#FFB2A8" d="M1403,859.5c-2.9,2.1-108.2-2-123.9-3.8c-15.7-1.8-16.7,2.2-20.7-9c-4.1-11.3-1.3-19.8,2.6-28.3
							c2.7-5.9,5-9.6,6.6-13.3c0.7-1.6,1.3-3.3,1.8-5.1c1.6-6,4.4-32.8,0.3-54.1c-4.1-21.3-8.4-48.3-8.4-48.3s60.8-17,63.7-5.5
							c0,0-5.7,64.3-4.2,77.5c1.4,13.2,7.1,32.2,9.1,35.1c1.8,2.5,11.7,7.1,18.6,10.6c1.1,0.6,2.1,1.1,3,1.6
							c6.5,3.6,30.6,15.8,40.8,18.2c0.4,0.1,0.7,0.2,1.1,0.3c7,1.7,10.4,3.4,11.3,6.3l0,0c0.3,0.9,0.4,2,0.3,3.3
							C1404.4,850.2,1405.9,857.4,1403,859.5z"></path><path fill="#2B2468" d="M1403,859.5c-2.9,2.1-108.2-2-123.9-3.8c-15.7-1.8-16.7,2.2-20.7-9c-4.1-11.3-1.3-19.8,2.6-28.3
					c2.7-5.9,5-9.6,6.6-13.3c2.6-0.8,5.4-1,8.3-0.1c13.1,4,19.3,20.6,45.3,22.4c17.9,1.2,24.7-6.9,27.2-12.1c1.1,0.6,2.1,1.1,3,1.6
					c6.5,3.6,30.6,15.8,40.8,18.2c0.4,0.1,0.7,0.2,1.1,0.3l11.3,6.3l0,0c0.3,0.9,0.4,2,0.3,3.3
					C1404.4,850.2,1405.9,857.4,1403,859.5z"></path><path fill="#FFB2A8" d="M1317.7,884.4c-2.9,2.1-108.2-2-123.9-3.8c-15.7-1.8-16.7,2.2-20.7-9c-4.1-11.3-1.3-19.8,2.6-28.3
							c2.7-5.9,5-9.6,6.6-13.3c0.7-1.6,1.3-3.3,1.8-5.1c1.6-6,4.4-32.8,0.3-54.1c-4.1-21.3-8.4-48.3-8.4-48.3s60.8-17,63.7-5.5
							c0,0-5.7,64.3-4.2,77.5c1.4,13.2,7.1,32.2,9.1,35.1c1.8,2.5,11.7,7.1,18.6,10.6c1.1,0.6,2.1,1.1,3,1.6
							c6.5,3.6,30.6,15.8,40.8,18.2c0.4,0.1,0.7,0.2,1.1,0.3c7,1.7,10.4,3.4,11.3,6.3l0,0c0.3,0.9,0.4,2,0.3,3.3
							C1319.1,875.1,1320.7,882.3,1317.7,884.4z"></path><path fill="#2B2468" d="M1317.7,884.4c-2.9,2.1-108.2-2-123.9-3.8c-15.7-1.8-16.7,2.2-20.7-9c-4.1-11.3-1.3-19.8,2.6-28.3
					c2.7-5.9,5-9.6,6.6-13.3c2.6-0.8,5.4-1,8.3-0.1c13.1,4,19.3,20.6,45.3,22.4c17.9,1.2,24.7-6.9,27.2-12.1c1.1,0.6,2.1,1.1,3,1.6
					c6.5,3.6,30.6,15.8,40.8,18.2c0.4,0.1,0.7,0.2,1.1,0.3l11.3,6.3l0,0c0.3,0.9,0.4,2,0.3,3.3
					C1319.1,875.1,1320.7,882.3,1317.7,884.4z"></path><path fill="#473F8B" d="M1329.9,716c-0.7,5.7-62,7.8-67.7,5.4c-5.7-2.4-11-67.8-11-67.8s-4,72.6-8.1,78.8
					c-4.1,6.2-63.8,10.1-69.4,6.5c-5.6-3.6-2.4-20.7-8.3-39.8c-5.9-19.1-1.6-58.3-5.5-65c-3.9-6.7-45.6-7-81.7-32.3
					c-21.4-15-24.5-42.4-23.4-62.2c20.4,2.6,43.8,5,65.2,5.7c53.2,1.7,104.8-25.9,104.8-25.9s58.5,20.7,70.9,29.6
					c12.4,8.9,34,30.1,40,41.5C1341.6,602.2,1330.6,710.3,1329.9,716z"></path><path fill="#827DB6" d="M1185.7,574.9c-0.5,0-1-0.4-1.1-1c-0.1-0.6,0.3-1.2,1-1.3c24.4-3.3,34.5-19.7,34.6-19.9
						c0.3-0.5,1-0.7,1.5-0.4c0.5,0.3,0.7,1,0.4,1.5c-0.4,0.7-10.7,17.5-36.2,21C1185.8,574.9,1185.8,574.9,1185.7,574.9z"></path><path fill="#827DB6" d="M1251.1 654.8c-.6 0-1.1-.5-1.1-1.1-.9-23.4-3-59.3-4.9-62.6-1.9-3.2-24.6-15.6-39.4-23.2-.6-.3-.8-1-.5-1.5.3-.6 1-.8 1.5-.5 3.8 2 37.5 19.3 40.3 24.1 2.8 4.7 5 57.6 5.2 63.6C1252.3 654.2 1251.8 654.7 1251.1 654.8 1251.2 654.8 1251.2 654.8 1251.1 654.8zM1182 560c-.6 0-1.1-.5-1.1-1.1 0-.6.5-1.1 1.1-1.2l24.4-.9c.6 0 1.1.5 1.2 1.1 0 .6-.5 1.1-1.1 1.2L1182 560C1182.1 560 1182 560 1182 560z"></path><path fill="#F23868" d="M1227.3,477.2c-1.6,22.9,1.2,30.9,1.1,35.9c0,0.1,0,0.1,0,0.2c0,4.9,3.5,9.8-4.1,14.2
				c-7.7,4.4-37.5,22.2-91,22.9c-53.5,0.8-74.7-2.2-78.8-0.1c-4.1,2.1-6.7-1.3-6.6-6.3c0.1-5,3.5-54.9,6.4-82.7
				c2.9-27.8,3.5-75.5,3.5-75.5s13.2,5.3,32.2-24.7c4.4-7,7-14.6,8.4-22.3l0,0c4.7-25.2-3.3-50.4-0.4-51.8
				c3.9-1.8,11.1-3.2,11.1-3.2s-3.6,61.8,32.1,71.7c35.7,9.9,51.3,1.5,56.8-18.6c5.5-20.1-5.4-48.6-5.4-48.6l16,2.2
				c0,0,17.8,38.6,25.8,86.2c0,0,0,0,0,0C1233.2,395.7,1228.7,457.8,1227.3,477.2z"></path><path fill="#FF6675" d="M1071.3 506.6c-1.1 0-2-.8-2.2-1.9-.2-1.2.7-2.4 1.9-2.5 27-3.8 50.2-38.8 50.4-39.1.7-1 2.1-1.3 3.1-.6 1 .7 1.3 2.1.6 3.1-1 1.5-24.6 37-53.6 41.1C1071.5 506.6 1071.4 506.6 1071.3 506.6zM1219.3 492.2c-.9 0-1.8-.6-2.1-1.6l-9.7-30.4c-.4-1.2.3-2.4 1.5-2.8 1.2-.4 2.4.3 2.8 1.5l9.7 30.4c.4 1.2-.3 2.4-1.5 2.8C1219.8 492.2 1219.5 492.2 1219.3 492.2z"></path><path fill="#FFA9A9" d="M1121.6,402.9c0,0-3.2,35.3,20,40c23.3,4.7,50.1,1.1,57.3-7.9c7.3-9,10.4-39.1,8-41.5s-8.6,4.8-30.3,3.2
				C1155,395.1,1121.6,393.6,1121.6,402.9z"></path></g><path fill="#473F8B" d="M1098.1,287c0,0-24.1,8.5-36.6,17.9c-12.5,9.5-64.7,68.3-71.8,77.8c-7.1,9.5-10.1,17.8-7.1,24.8
			c3,6.9,14.7,22.1,32.3,15s61.2-35.5,77.1-64.7C1107.9,328.5,1098.1,287,1098.1,287z"></path><path fill="#473F8B" d="M929.4,307.2c0,0,26.7-18.9,31.5-15.6c4.8,3.3,11.6,20.3,34.9,41.7c23.3,21.4,46.1,38.8,38.7,65.8
			c-7.4,27-28.8,33.2-47,16.7c-18.3-16.4-40.2-60.4-46.7-77.4C934.2,321.4,927.9,311.5,929.4,307.2z"></path><path fill="#2B2468" d="M1035.1,397.9c-0.1,0-0.2,0-0.2,0c-0.9-0.1-1.5-1-1.4-1.9c4.1-25.5-18.2-42.4-18.4-42.6
			c-0.7-0.6-0.9-1.6-0.3-2.4c0.6-0.7,1.6-0.9,2.4-0.3c0.2,0.2,24.1,18.3,19.8,45.8C1036.7,397.3,1036,397.9,1035.1,397.9z"></path><g><path fill="#FFB2A8" d="M1164.8,617.2c-49.5-5.3-66.7-6-77.2,9.1s-9.4,26.1-7.9,32.3c1.5,6.2,8.3,25.9,21.8,32.4
						c13.5,6.5,64,5.1,76.9,4.1c12.9-1.1,90.2-14.2,99.8-14.5c9.7-0.3,11.2,2.1,16.9-0.7c5.7-2.8,19.8-3,23.5-3.2
						c3.7-0.2,34.4-1.2,37-1.4c2.6-0.2,14.7-11.6,16.7-16.7s0.2-11.1,0.2-11.1s0.4-5.1,1-9.4c0.6-4.3-2.5-8.6-2.5-8.6s2-3.4,0.7-9.1
						c-1.2-5.7-5.4-8.7-5.4-8.7s-1.8-7.1-4.2-10.1c-2.3-3-6.9-1.8-8.3-1.2c-1.4,0.5-2.1,0.1-2.1,0.1s-6.8-6.6-9.5-6.7
						c-2.7-0.1-7.2-0.2-7.2-0.2s-1,11.2-2.1,11.2c-1.1,0-9.8-4.5-22,1.7c-12.2,6.2-20.3,19.7-20.3,19.7S1214.3,622.5,1164.8,617.2z"></path><path fill="#FFF" d="M1262.9,619.1c4.4-0.2,8.2,2.8,8.6,6.7c2,16.7,6.2,57.2,1.7,59.9c-5.7,3.5-101.9,19-148.1,16.6
				c-46.3-2.4-57.8-6.3-69.7-28c-11.9-21.8-4.3-44.2,8.4-55.8c12.6-11.6,24.3-15.3,73.7-8.8C1182.6,615.6,1233.3,620.1,1262.9,619.1
				z"></path></g><path fill="#D3C5F9" d="M1396.5,359.4c0,0,24.9,38.1,28.2,38.2c3.2,0.1,67.8-43.6,70.6-41.1c2.8,2.6,19.4,29.7,18.3,31.9
			c-1.1,2.1-55.3,46.5-57.4,44.3c-2.1-2.2-30.8-32.6-30.8-32.6s-33.9,28.6-36,26.4c-2.1-2.2-26.7-41.3-21.2-45.2
			C1373.6,377.5,1396.5,359.4,1396.5,359.4z"></path><g><path fill="#221E54" d="M1532.4,307.9c-19.7,25.9-48.5,31.1-48.5,31.1l-117.7-128.1c0,0,3.3-101.9,114.2-73.6l0,0
				c2.1,1,4.2,2,6.4,3.1C1580.1,186.3,1552.2,282,1532.4,307.9z"></path><path fill="#FFB2A8" d="M1520.7,293.5c-0.7,11.1-25,19.2-25,19.2s-13.1,30.2-18.5,39.8c-4.2,7.4-53.7,14.8-80.5,16
						c-0.1,0-0.1,0-0.2,0c-18.6-0.1-14-14.8-21.8-26.5c-8.1-12.3-15-43.7-15.4-45.6c0-0.1,0-0.1,0-0.1c-0.3-4.1-0.4-7.8-0.2-10.7
						c1.6-21,9.9-29.7,4.1-42.6c-5.8-12.9,4.9-37.6,4.9-37.6l25,1.1c0,0,9.3,13,39.3,15.1c30,2.1,55.2-8,59.3-5.7
						c4.1,2.3-7.2,34-7.7,44.5c-0.5,10.5-7.2,17.2,2,18.3c9.1,1.1,19.3-19.5,30.4-15.4C1527.8,267.2,1521.5,282.4,1520.7,293.5z"></path><path fill="#152E51" d="M1388 265c-.2 4.8-3 8.6-6.1 8.5s-5.6-4.2-5.3-9c.2-4.8 3-8.6 6.1-8.5C1385.9 256.1 1388.3 260.1 1388 265zM1443.8 270c-.2 4.8-3 8.6-6.1 8.5s-5.6-4.2-5.3-9c.2-4.8 3-8.6 6.1-8.5S1444.1 265.2 1443.8 270z"></path><path fill="#C14276" d="M1396.7,275.5c5.4,10.3-7,11.7-9.3,19.4c-1.5,5,2.8,5.4,4.5,8.9c1.4,2.7,5.1,0.2,3.7-2.5
				c-0.9-1.7-4.1-3.7-3.5-5.8c0.3-1,3.2-3.2,3.9-3.8c1.4-1.3,3-2.6,4.2-4.1c3.7-4.4,2.7-9.8,0.2-14.6
				C1399.1,270.3,1395.3,272.8,1396.7,275.5L1396.7,275.5z" opacity=".36"></path><path fill="#152E51" d="M1372.4 247.8c-.6.3 4.9-5.8 8.5-6.3 3.6-.5 7.2-.7 8.2 1.2 1 1.9 1.9 4.5-.2 4.4S1377.8 245.3 1372.4 247.8zM1433.4 246.9c0 0-1 3.8-.2 4.8s5-.2 9.4 2.5c4.4 2.7 8.3 4.8 8.3 4.8s-2-5.9-4.8-9.4C1443.3 246.2 1433.9 243.5 1433.4 246.9z"></path><path fill="#FFF" d="M1389.5 259.2c-.1 1.6-1.5 2.9-3.1 2.8-1.7-.1-2.9-1.5-2.9-3.1.1-1.6 1.5-2.9 3.1-2.8C1388.3 256.2 1389.6 257.6 1389.5 259.2zM1444.9 264.7c-.1 1.6-1.5 2.9-3.1 2.8-1.7-.1-2.9-1.5-2.9-3.1s1.5-2.9 3.1-2.8C1443.7 261.7 1445 263.1 1444.9 264.7z"></path><path fill="#C14276" d="M1419.4,334.3c-2.3,1.5-5,2.8-8.1,4c-8.1,2.9-16.1,2-22.1-1.5c-4.7-2.8-8.3-7.1-10.1-12.5
				c-0.6-2,0.9-3.8,2.8-3.7c0.2,0,0.4,0,0.6,0.1c3.8,1,9.8,2,17.7,1.5c10.4-0.7,22.9-5.8,28.4-6.8c2-0.3,3.1-0.1,3,0.9
				C1431.4,319.7,1429,328.2,1419.4,334.3z"></path><path fill="#FFF" d="M1428.7,315.4l-0.5,3.7c-0.1,0.8-9.6,5.6-22.3,6.6c-12.8,1.1-20.4-1-22.2-1.4c-0.8-0.2-1.3-1.9-1.7-3.8
				c0.2,0,0.4,0,0.6,0.1c3.8,1,9.8,2,17.7,1.5C1410.6,321.5,1423.1,316.3,1428.7,315.4z"></path><path fill="#F27C85" d="M1419.4,334.3c-2.3,1.5-5,2.8-8.1,4c-8.1,2.9-16.1,2-22.1-1.5c3.4-4.8,11.1-7.6,19.4-6.4
				C1412.8,330.9,1416.5,332.4,1419.4,334.3z"></path><path fill="#F078A5" d="M1499.8,286.3c0,0,11.8-19.8,14.9-16.6c3,3.2,4.6,9.1,3.5,15.2c-1,6.1-5.1,14.3-8.9,15.6
				c-3.9,1.3-11.7,0-10-2.2s9.8-3.6,8.4-7.3C1506.3,287.4,1499,290.4,1499.8,286.3z"></path><path fill="#221E54" d="M1551.7,255.9c0,0-36.4-56-83.3-71.5c-46.9-15.5-100,20.9-100,20.9s0,0-0.1,0c-1.1-1.2-19.1-20.3-13-36.6
				c6.3-16.8,13.6-17,13.6-17s3.1-15.3,8.6-16.4c5.4-1.1,10.6,2.3,10.6,2.3s-0.6-8.3,6.6-11.4c7.2-3.1,18.1,3.2,18.1,3.2
				s10-8.3,27.6-7c2.9,0.4,5.9,0.9,9.1,1.5c0,0,0.1,0,0.1,0c0.4,0.1,0.9,0.2,1.3,0.3c17.1,3.3,37.5,9.3,61.3,22.1
				C1570.1,177.3,1551.7,255.9,1551.7,255.9z"></path></g></g><g><path fill="#D3C5F9" d="M1156.9,1476.8c-6.8,12.6-29.9,23.7-56.9,29c-7.1,1.4-14.5,2.4-21.9,3c-14.9,1.1-30,0.3-43.4-2.9
				c-10.8-2.6-21.1-3.5-31.2-2.9c-32.5,2.1-63.7,20.1-106.1,49.4c-55.6,38.4-73.8,1.1-139.7-15.4c-21.4-5.4-36.5-6.9-49.8-5.8
				c-27.6,2.2-47.8,15.4-102.4,27.9c-1.1,0.3-2.1,0.5-3.2,0.7c-7.9,1.7-15.1,2.9-21.6,3.7c-49.1,5.7-62.1-14.9-80-50.8
				c-3.2-6.4-6.6-13.2-10.3-20.5c-27.9-54.3-78.5-29.4-92.5-50.3c-14-20.9,3.5-50.6,101.2-139.3c97.7-88.7,200.6-371.2,200.6-371.2
				c129.1,56.5,261.7,25.1,261.7,25.1c1.1,11.6,5.5,28.7,12.3,49.8C1018.7,1145.7,1167.5,1457.1,1156.9,1476.8z"></path><path fill="#BEB0F7" d="M977.6,1212c6.8,77.3,17.9,201.7,25.9,291c-32.5,2.1-63.7,20.1-106.1,49.4
				c-55.6,38.4-73.8,1.1-139.7-15.4c-21.4-5.4-36.5-6.9-49.8-5.8c28.1-82.1,83.2-481.7,48.7-492.6c-34.5-10.8-22.1,54.8-48.7,209.8
				c-17.8,103.8-71.9,235.7-105.6,311.4c-7.9,1.7-15.1,2.9-21.6,3.7c22.4-54.8,56.3-141.7,83.6-229.3
				c45-144.2,74.9-329.2,62.1-342.1c-12.8-12.9-15.1,4.8-34.4,62.3c-19.3,57.5-108.7,208.8-156.4,336.8
				c-18.6,49.9-29.1,90.2-35,121.6c-3.2-6.4-6.6-13.2-10.3-20.5c-27.9-54.3-78.5-29.4-92.5-50.3c-14-20.9,3.5-50.6,101.2-139.3
				c97.7-88.7,200.6-371.2,200.6-371.2c129.1,56.5,261.7,25.1,261.7,25.1c1.1,11.6,5.5,28.7,12.3,49.8c-3.4,6.4,0.7,20.2,6.8,45.2
				c8.2,33.8,91.5,348.8,119.5,454.3c-7.1,1.4-14.5,2.4-21.9,3c-24.3-112.9-98.6-455.6-112.3-494.1
				C949.3,968.6,966,1080.6,977.6,1212z"></path><path fill="#E5DEFC" d="M707.9,951.4c0,0-19.3,125.5-112.6,278C501.9,1381.8,477.5,1483,477.5,1533c0,50,7,50,0,50
				c-7,0-76.8-58.2-90.7-118.6c-14-60.5,12.8-69.8,46.5-109.3c33.7-39.5,131.4-134.1,179.1-232.2c47.7-98.1,86.1-203,86.1-203
				S717.6,908.6,707.9,951.4z"></path><path fill="#2B2468" d="M864.1,820.1c0,0,15.3-12,15.5-26.8c0.2-14.8-12.2-14.4-12.2-14.4s8.5-11-3.3-27.9
				c-11.8-16.9-26.7,0.8-26.7,0.8s0-10.8-5.4-17.4c-5.4-6.6-8,11.3-8,11.3s-6.1-22.3-31.1-15.2c-25,7.1-31.3,29.2-31.3,29.2
				s-27.7-9-31.9-1.3c-4.1,7.7,14.3,10.3,14.3,10.3s-22.8,6.3-25.8,21.6c-3,15.3,9.3,20.5,9.3,20.5s-12.6,7.4-10.1,13.4
				c2.4,6,12.6,2.4,12.6,2.4s-13.6,13.8-4.4,24.2c9.2,10.4,13,11.2,13,11.2s-2.3,21.4,8,25.8c10.3,4.4,17.3,2.1,17.3,2.1
				s12.3,19.7,22.2,14.7c9.9-5.1,9.4-22,9.4-22L864.1,820.1z"></path><path fill="#FFB2A8" d="M868.2,1046c60-14,41.2-77.7,41.2-77.7s-32.3-35.5-38.8-38.6c-2.7-1.2-5.6-5.6-8.2-10.4
				c-3.7-6.9-6.6-14.5-6.6-14.5l-51.1,5.5c0,0,0.7,2.5,1.5,6.3c1.5,6.7,3.3,17.6,2.4,25.6c-1.5,12.5-15.1,23.2-15.1,23.2
				S808.1,1060,868.2,1046z"></path><path fill="#FFB2A8" d="M782.6,891.5c0,0,13.7,20.4,19,26.7c1.1,1.3,4.6,2.1,9.6,2.4l0,0c12.7,0.9,34.8-0.8,50.1-3.1
				c1.4-0.2,2.6-0.4,3.9-0.6c0,0,0.1,0,0.1,0c14.2-3.1,8.9-13.3,13.4-23.4c4.7-10.5,6.1-35.1,6.2-36.6c0,0,0-0.1,0-0.1
				c-0.3-3.1-0.7-5.9-1.2-8c-3.8-15.4-11.2-20.5-8.4-31.1c2.9-10.6-8.4-27.3-8.4-27.3l-19,5c0,0-8,3.9-30.7,10.3
				c-22.7,6.5-40.8,10.6-43.7,13c-2.9,2.4,9.7,24.2,11.3,32c1.6,7.8,7.6,11.6,0.7,14c-6.9,2.4-17.2-11.3-25.2-6.5
				c-8,4.8-1.3,15.1,0.6,23.3C763.1,889.4,782.6,891.5,782.6,891.5z"></path><path fill="#2B2468" d="M859.3 838.1c.8 3.6 3.3 6 5.7 5.3 2.4-.6 3.8-4 3-7.6-.8-3.6-3.3-6-5.7-5.3C859.9 831.1 858.6 834.5 859.3 838.1zM817.2 851c.8 3.6 3.3 6 5.7 5.3 2.4-.6 3.8-4 3-7.6-.8-3.6-3.3-6-5.7-5.3C817.8 844 816.4 847.5 817.2 851z"></path><path fill="#F27C85" d="M854,847.4c-2.9,8.6,6.8,7.6,9.5,12.9c1.7,3.5-1.5,4.5-2.4,7.4c-0.7,2.3-3.9,1-3.2-1.2
				c0.4-1.4,2.7-3.4,2-4.9c-0.4-0.7-2.8-1.8-3.4-2.2c-1.2-0.8-2.6-1.5-3.7-2.4c-3.4-2.7-3.3-6.9-1.9-10.8
				C851.5,843.9,854.7,845.1,854,847.4L854,847.4z"></path><path fill="#2B2468" d="M869.2 822.6c.5.1-4.5-3.5-7.3-3.3-2.8.3-5.6.7-6.1 2.3-.5 1.6-.9 3.7.7 3.2C858.1 824.4 864.8 821.7 869.2 822.6zM822.4 832.1c0 0 1.2 2.6.8 3.6-.5.9-3.9.7-6.9 3.4-3.1 2.8-5.8 4.9-5.8 4.9s.8-4.8 2.6-7.8C814.7 833.1 821.6 829.6 822.4 832.1z"></path><path fill="#FFF" d="M857.5 834c.3 1.2 1.5 1.9 2.7 1.6 1.3-.3 2.1-1.6 1.8-2.8-.3-1.2-1.5-1.9-2.7-1.6C858 831.6 857.2 832.8 857.5 834zM815.7 847.3c.3 1.2 1.5 1.9 2.7 1.6 1.3-.3 2.1-1.6 1.8-2.8s-1.5-1.9-2.7-1.6C816.3 844.8 815.4 846.1 815.7 847.3z"></path><path fill="#C14276" d="M843.8,895c1.9,0.7,4.1,1.3,6.7,1.6c6.6,0.8,12.6-1.2,16.8-4.8c3.3-2.8,5.5-6.7,6.2-11
				c0.2-1.6-1.1-2.7-2.6-2.3c-0.1,0-0.3,0.1-0.5,0.1c-2.8,1.4-7.2,3.1-13.4,4c-8.1,1.2-18.2-0.6-22.6-0.3c-1.5,0.1-2.4,0.4-2.2,1.2
				C832.8,886.1,835.7,892,843.8,895z"></path><path fill="#FFF" d="M834.4,882.4l0.8,2.7c0.2,0.6,8,2.6,17.9,1.3c9.9-1.3,15.5-4.1,16.8-4.7c0.6-0.3,0.8-1.6,0.8-3.1
				c-0.1,0-0.3,0.1-0.5,0.1c-2.8,1.4-7.2,3.1-13.4,4C848.9,884,838.7,882.2,834.4,882.4z"></path><path fill="#F27C85" d="M843.8 895c1.9.7 4.1 1.3 6.7 1.6 6.6.8 12.6-1.2 16.8-4.8-3.2-3-9.4-3.8-15.7-1.6C848.4 891.4 845.8 893.1 843.8 895zM776.3 872.5c0 0-11.5-12.8-13.4-10-1.9 2.9-2.4 7.6-.8 11.9 1.5 4.3 5.6 9.8 8.8 10.2 3.1.4 9-2 7.4-3.3-1.6-1.4-7.9-1.1-7.3-4C771.5 874.3 777.4 875.3 776.3 872.5zM811.3 920.5c16.3 12.8 39.4 30.4 43.9 31.3 7.2 1.3 7.8-2.9 5.7-8.7-2.1-5.8-8.4-22.1-8.4-22.1l9.9-1.6c-.4-.6-.7-1.3-1-1.9C846.1 919.7 824 921.5 811.3 920.5z"></path><path fill="#FFB2A8" d="M599.4,720.5c-1.7-1.7-15.1-2.8-15.1-2.8s-6.1-16.7-11.2-15.9c-5.1,0.8-8.1,4.9-8.1,4.9s-6.2-2.1-9,0.6
			c-2.8,2.6-2.8,4.7-2.8,4.7s-6.2-1.3-8.3,1.7c-2.1,3-2.1,7.7-2.1,7.7s-4.3-1.1-5.7,0.9c-1.3,2.1-0.4,5.5,0,7
			c0.4,1.5,9.3,20.6,12.3,23.8c3,3.2,10.2,9.8,10.7,10.4c0.6,0.6,6,9.2,6,11.9c0,2.8,2.3,6.3,2.8,7.8c0.1,0.3,0.9,3.8,2.3,9.6
			l36-11.7L599.4,720.5z"></path><path fill="#F27C85" d="M540,730.7c1.3,2.8,5.8,12,10.2,12.4c0.2,0,0.4,0,0.6,0c1.2,0,2.3-0.4,3.1-1.1c0.6-0.5,1-1.2,1.3-1.8
			c0.5,0.4,0.9,0.7,1.3,0.9c0.9,0.4,1.8,0.6,2.8,0.6c1.3,0,2.6-0.3,3.8-1c1.9-1.1,3.3-2.8,3.4-4.2c0-0.2,0-0.4,0-0.6
			c0.9,0.3,1.9,0.6,3,0.6c0.9,0,1.8-0.2,2.7-0.6c2.3-1.2,3.2-2.9,3.5-4.1c1.4,0.1,2.6,0.1,3.7,0.2c-2.5,4.3-7.1,14.3-4.6,28
			c0.1,0.7,0.8,1.2,1.5,1.2c0.1,0,0.2,0,0.3,0c0.8-0.1,1.3-0.9,1.2-1.7c-3-16.7,5.5-27.8,5.6-27.9l1.8-2.3l-2.9-0.1
			c-0.2,0-15.6-0.8-18.7-1.3c-1.9-0.3-4.1-2.7-4.2-3.6c2.2-0.8,16.6-3.5,25.3-5c0.8-0.1,1.3-0.9,1.2-1.7c-0.1-0.8-0.9-1.4-1.7-1.2
			c-1.1,0.2-6,1-11.3,2l-6.5-12.3c-0.4-0.7-1.3-1-2-0.6c-0.7,0.4-1,1.3-0.6,2l6,11.5c-3.4,0.6-6.7,1.3-8.9,1.8l-6.4-9.9
			c-0.4-0.7-1.4-0.9-2-0.4c-0.7,0.4-0.9,1.4-0.4,2l5.9,9.2c-1.1,0.6-1.7,1.6-1.5,2.9c0.3,2.3,3,5.1,5.7,6c0.8,2.2,1.6,4.8,1.5,5.7
			c0,0.3-0.6,1.3-1.9,2c-0.8,0.4-2.3,1.1-3.9,0.3c-0.5-0.2-1.3-0.9-2.2-1.9c0,0,0,0,0,0c-3.2-3.5-8.2-10.6-11.5-15.9
			c-0.4-0.7-1.4-0.9-2-0.4c-0.7,0.4-0.9,1.4-0.4,2c1.4,2.2,7,10.8,11.4,15.7c-0.1,0.6-0.4,1.4-0.9,1.9c-0.2,0.2-0.6,0.5-1.5,0.4
			c-1.8-0.2-5.5-5.7-7.8-10.7c-0.3-0.7-1.2-1.1-2-0.7C540,729.1,539.7,730,540,730.7z M565.8,732.2c-0.1-0.4-0.3-0.8-0.4-1.2
			c2,0.2,4.7,0.4,7.3,0.5c-0.3,0.5-0.8,1.2-1.8,1.7C569.1,734.1,566.7,732.8,565.8,732.2z"></path><path fill="#FFB2A8" d="M1121,739.5c1.7-1.7,15.1-2.8,15.1-2.8s6.1-16.7,11.2-15.9c5.1,0.8,8.1,4.9,8.1,4.9s6.2-2.1,9,0.6
			c2.8,2.6,2.8,4.7,2.8,4.7s6.2-1.3,8.3,1.7c2.1,3,2.1,7.7,2.1,7.7s4.3-1.1,5.7,0.9c1.3,2.1,0.4,5.5,0,7
			c-0.4,1.5-9.3,20.6-12.3,23.8c-3,3.2-10.2,9.8-10.7,10.4c-0.6,0.6-6,9.2-6,11.9c0,2.8-2.3,6.3-2.8,7.8c-0.1,0.3-0.9,3.8-2.3,9.6
			l-36-11.7L1121,739.5z"></path><path fill="#F27C85" d="M1179.6,747.8c-0.7-0.3-1.6,0-2,0.7c-2.3,5-6,10.5-7.8,10.7c-0.8,0.1-1.2-0.2-1.5-0.4
			c-0.6-0.5-0.8-1.3-0.9-1.9c4.4-4.9,10-13.6,11.4-15.7c0.4-0.7,0.2-1.6-0.4-2c-0.7-0.4-1.6-0.2-2,0.4c-3.4,5.2-8.4,12.4-11.5,15.9
			c0,0,0,0,0,0c-0.9,1-1.7,1.7-2.2,1.9c-1.6,0.7-3.1,0.1-3.9-0.3c-1.3-0.7-1.9-1.7-1.9-2c-0.1-0.8,0.7-3.5,1.5-5.7
			c2.7-0.9,5.5-3.7,5.7-6c0.1-1.3-0.4-2.3-1.5-2.9l5.9-9.2c0.4-0.7,0.2-1.6-0.4-2c-0.7-0.4-1.6-0.2-2,0.4l-6.4,9.9
			c-2.3-0.5-5.5-1.2-8.9-1.8l6-11.5c0.4-0.7,0.1-1.6-0.6-2c-0.7-0.4-1.6-0.1-2,0.6l-6.5,12.3c-5.3-1-10.2-1.8-11.3-2
			c-0.8-0.1-1.6,0.4-1.7,1.2c-0.1,0.8,0.4,1.6,1.2,1.7c8.7,1.5,23.1,4.1,25.3,5c-0.1,0.9-2.3,3.3-4.2,3.6
			c-3.1,0.5-18.5,1.3-18.7,1.3l-2.9,0.1l1.8,2.3c0.1,0.1,8.6,11.2,5.6,27.9c-0.1,0.8,0.4,1.6,1.2,1.7c0.1,0,0.2,0,0.3,0
			c0.7,0,1.3-0.5,1.5-1.2c2.5-13.7-2.1-23.7-4.6-28c1-0.1,2.3-0.1,3.7-0.2c0.3,1.3,1.2,3,3.5,4.1c0.9,0.5,1.8,0.6,2.7,0.6
			c1.1,0,2.1-0.3,3-0.6c0,0.2,0,0.4,0,0.6c0.2,1.5,1.5,3.2,3.4,4.2c1.2,0.7,2.5,1,3.8,1c1,0,1.9-0.2,2.8-0.6
			c0.4-0.2,0.8-0.5,1.3-0.9c0.3,0.6,0.7,1.3,1.3,1.8c0.8,0.7,1.9,1.1,3.1,1.1c0.2,0,0.4,0,0.6,0c4.4-0.4,8.9-9.6,10.2-12.4
			C1180.7,749,1180.4,748.1,1179.6,747.8z M1149.5,752.2c-1-0.5-1.5-1.1-1.8-1.7c2.6-0.2,5.3-0.4,7.3-0.5c-0.1,0.4-0.3,0.8-0.4,1.2
			C1153.7,751.8,1151.3,753.1,1149.5,752.2z"></path><path fill="#FFB2A8" d="M904.1,1827.4c1.7,0.8,104.5,0,104.5,0s5.5-7.9,0-16.3c-5.6-8.4-12.5-19.4-24.3-36.1
					c-4-5.7-6.8-9.7-9-13c-4.2-6.6-5.8-10.9-8.4-20.4c-3.8-14.4,0.3-104.5,0.3-104.5l-56.6,13.7c0,0,7.7,59.7,7.5,73.3
					c-0.2,13.7,1.3,22,0,30.8c-0.3,2.1-1,4.8-1.9,7.9c-3,9.9-8.5,23.3-12.2,28.2C899.3,1797.4,902.4,1826.6,904.1,1827.4z"></path><path fill="#2B2468" d="M904.1,1827.4c1.7,0.8,104.5,0,104.5,0s5.5-7.9,0-16.3c-5.6-8.4-12.5-19.4-24.3-36.1
					c-4-5.7-6.8-9.7-9-13c-1.1,0.4-2,1-2.7,1.6c-6.4,6.1-13.3,16.7-29.3,14.1c-14.4-2.4-21-14-27-14.9c-3,9.9-8.5,23.3-12.2,28.2
					C899.3,1797.4,902.4,1826.6,904.1,1827.4z"></path><path fill="#FFB2A8" d="M746.3,1827.4c-1.7,0.8-104.5,0-104.5,0s-5.5-7.9,0-16.3c5.6-8.4,12.5-19.4,24.3-36.1
					c4-5.7,6.8-9.7,9-13c4.2-6.6,5.8-10.9,8.4-20.4c3.8-14.4-0.3-104.5-0.3-104.5l56.6,13.7c0,0-7.7,59.7-7.5,73.3
					c0.2,13.7-1.3,22,0,30.8c0.3,2.1,1,4.8,1.9,7.9c3,9.9,8.5,23.3,12.2,28.2C751.2,1797.4,748,1826.6,746.3,1827.4z"></path><path fill="#2B2468" d="M746.3,1827.4c-1.7,0.8-104.5,0-104.5,0s-5.5-7.9,0-16.3c5.6-8.4,12.5-19.4,24.3-36.1
					c4-5.7,6.8-9.7,9-13c1.1,0.4,2,1,2.7,1.6c6.4,6.1,13.3,16.7,29.3,14.1c14.4-2.4,21-14,27-14.9c3,9.9,8.5,23.3,12.2,28.2
					C751.2,1797.4,748,1826.6,746.3,1827.4z"></path><path fill="#473F8B" d="M658,1691.9c0.7,10.3,36.2,24.8,49.2,31.8c13,7,37.6,1.6,42,0c4.3-1.6,16.7-66.1,20.3-78.9
					c3.6-12.9,9.4-58.2,21.7-86.5c11.6-26.6,59.7-178.8,65.3-196.8c0.4-1.1,0.5-1.7,0.5-1.7s25.3,356.2,27.5,364
					c1.7,6.1,20.2,8.3,33.9,8.6c4,0.1,7.6,0,10.3-0.2c11.6-0.9,53.6,0,55.8-4.3c2.2-4.3-8.7-101.9-9.4-121.7
					c-0.7-19.7-4.3-132.8-5.8-156.8c-1.4-24-22-275-22-275c0.4-92.5-169.1-97.7-193.7-58.3c-24.6,39.4-22.4,141.4-22.4,172.2
					c0,30.8-20.3,170.5-25.3,188.5c-5.1,18-47.8,194.5-47.8,194.5S657.3,1681.7,658,1691.9z"></path><path fill="#2B2468" d="M856.6,1361.5c0.4-1.1,0.5-1.7,0.5-1.7s25.3,356.2,27.5,364c1.7,6.1,20.2,8.3,33.9,8.6
					c-0.2-16.8-1.6-37.5-6-57.6c-9.8-44.5-2.5-100.2-0.4-120.8c2.2-20.6-5.8-40.3-10.6-71.1c-4.9-30.8-10.7-200.3-10.7-200.3
					l-8.1,1.7l-26.1,76.9L856.6,1361.5z"></path><path fill="#827DB6" d="M881.1 1286.1c-4.5 1-9.9 1.7-16.3 1.7-2.2 0-4.5-.1-6.9-.2-.8-.1-1.4-.8-1.3-1.8 0-.9.7-1.6 1.5-1.6 32.6 2.2 40.8-12 40.9-12.2.4-.8 1.3-1 1.9-.5.7.5.9 1.5.5 2.3-.2.4-4.1 7.4-16.9 11.3l-26 75.2c-.2.6-.8 1-1.3 1-.2 0-.4 0-.5-.1-.7-.4-1.1-1.3-.8-2.2L881.1 1286.1zM883.6 1270.4c-.1 0-.2 0-.3 0-12.4-3.5-25.6-16.1-26.2-16.6-.6-.6-.7-1.6-.2-2.4.5-.7 1.4-.8 2-.3.1.1 13.3 12.6 25.1 15.9.8.2 1.2 1.1 1.1 2C884.8 1269.9 884.2 1270.4 883.6 1270.4zM663.2 1700.1c.1-.6 13.2-64.9 27.6-111.6 14.6-47.5 44.8-159.7 50.4-183.2 5.1-21 16.2-170.6 18-194.1-5.2 3-11.2 4.5-17.9 4.5-2.8 0-5.7-.3-8.8-.8-.8-.1-1.3-1-1.2-1.9.1-.9.8-1.6 1.6-1.4 12.7 2.2 22.9-.4 30.5-7.5 11.6-10.9 13.1-29.2 13.1-29.3.1-.9.8-1.6 1.5-1.5.8.1 1.4.9 1.3 1.8-.1.8-1.6 19.8-14.2 31.7-1 .9-2 1.7-3 2.5-1.1 14.5-12.8 174.5-18.2 197-5.7 23.5-35.9 135.8-50.5 183.4-14.3 46.5-27.4 110.6-27.5 111.2-.2.8-.7 1.3-1.4 1.3-.1 0-.2 0-.3 0C663.4 1701.9 663 1701 663.2 1700.1z"></path><path fill="#F23868" d="M757.9,943.5c-1.3-8.4-80.7-53.6-88.4-63.6c-7.7-10-56.7-112.6-60.4-113.5c-3.6-0.9-45.8,16.4-47.7,25.5
				c-1.8,9.1,54,114.4,60.4,120.8s89.9,98.9,99,107.6c9.1,8.7,37.1,37.7,37.1,37.7S759.1,951.4,757.9,943.5z"></path><path fill="#C1277F" d="M757.9,1039.4C757.9,1039.4,757.9,1039.4,757.9,1039.4c0.8,0,1.3-0.6,1.3-1.4
					c-0.7-57.6-28.7-76.5-29.9-77.3c-0.6-0.4-1.4-0.2-1.8,0.4c-0.4,0.6-0.2,1.4,0.4,1.9c0.3,0.2,28,19,28.7,75
					C756.5,1038.8,757.1,1039.4,757.9,1039.4z"></path><path fill="#C1277F" d="M755.4,1030.6c0.7,0,1.3-0.6,1.3-1.3c1-18.2-21.6-35-22.6-35.7c-0.6-0.4-1.4-0.3-1.9,0.3
					c-0.4,0.6-0.3,1.4,0.3,1.9c0.2,0.2,22.4,16.6,21.5,33.4C754,1030,754.6,1030.6,755.4,1030.6
					C755.3,1030.6,755.4,1030.6,755.4,1030.6z"></path><path fill="#F23868" d="M911.4,927.1c12.3-2.1,107.6-8.2,123.9-29.4c16.3-21.2,65.4-105.8,72.8-108.3
				c7.5-2.5,53.2,18.7,52.5,28.3c-0.7,9.6-48.4,88.2-62,109.4s-21.8,28-31.3,32.8s-130,40.3-130,40.3s4.8,73.9,4.8,89.6
				c0,15.7,2.4,68.8,8.8,81.1c6.5,12.3,3.4,19.1-2,24.3c-5.4,5.1-70.5,14.4-100.1,15c-29.6,0.7-111-0.6-118.8-11.2
				c-7.8-10.6-5.8-11.3-1.7-19.1c4.1-7.9,22.2-99.3,24.2-111.3c2-12,3.7-55.4,4.4-74.5c0.7-19.1-6.8-42.9-4.8-49
				c2-6.2,54.1-17.3,54.1-17.3s20.4,17.4,30.6,16.1c10.2-1.4,26.5-19.1,26.5-19.1L911.4,927.1z"></path><path fill="#C1277F" d="M937.3,1003.9c1.1,0,2-0.9,2-2c0.1-25.8-7.1-46.6-7.4-47.4c-0.4-1-1.5-1.6-2.5-1.2
				c-1,0.4-1.6,1.5-1.2,2.6c0.1,0.2,7.2,21.1,7.1,46.1C935.3,1003,936.2,1003.9,937.3,1003.9
				C937.3,1003.9,937.3,1003.9,937.3,1003.9z"></path><path fill="#E5DEFC" d="M904.9,926.7c0,0-7.2-6.5-20.8-8.6c-13.6-2.1-18.7-5.1-22.5,0c-3.7,5.1-20.1,22.6-26.5,19.8
					c-6.5-2.7-34-20.5-40.8-18.1c-6.8,2.4-36.4,17.4-36.4,23.6c0,6.2,23.8,49.2,76.9,41.4C887.9,977,910.1,945.6,904.9,926.7z"></path><path fill="#BEB0F7" d="M889.2,938.7c0,0-21.7,36.6-57.5,33.9c-35.8-2.7-45.6-16.1-41.9-19.5c3.7-3.4,25.2,17.8,52.8,14.7
					C870.2,964.7,889.2,938.7,889.2,938.7z"></path><path fill="#BEB0F7" d="M872.2,925.1c1.3-1.4-24.2,31-51.4,21.1c-27.2-9.9-26.9-19.1-15-13C817.8,939.4,843.3,957.7,872.2,925.1
					z"></path><g><path fill="#C1277F" d="M839.2 1093c.1 0 .2 0 .2 0 61.1-7.3 86.6-49.8 86.8-50.2.6-1 .2-2.2-.7-2.7-1-.6-2.2-.2-2.7.7-.2.4-24.9 41.2-83.9 48.3-1.1.1-1.9 1.1-1.7 2.2C837.3 1092.2 838.2 1093 839.2 1093zM905.7 1104.8c.6 0 1.2-.3 1.6-.9 11.6-16.5 18.9-42.4 19.2-43.5.3-1.1-.3-2.2-1.4-2.5-1.1-.3-2.2.3-2.5 1.4-.1.3-7.4 26.3-18.6 42.2-.6.9-.4 2.2.5 2.8C904.9 1104.7 905.3 1104.8 905.7 1104.8z"></path></g></g><g><path fill="#BEB0F7" d="M2095.2 1842H263.9c-3.7 0-6.8-3-6.8-6.8v-.7c0-3.7 3-6.8 6.8-6.8h1831.3c3.7 0 6.8 3 6.8 6.8v.7C2102 1839 2099 1842 2095.2 1842zM1133.8 1866.9H384c-2 0-3.6-1.6-3.6-3.6v-.4c0-2 1.6-3.6 3.6-3.6h749.8c2 0 3.6 1.6 3.6 3.6v.4C1137.4 1865.2 1135.8 1866.9 1133.8 1866.9zM1933 1866.9h-749.8c-2 0-3.6-1.6-3.6-3.6v-.4c0-2 1.6-3.6 3.6-3.6H1933c2 0 3.6 1.6 3.6 3.6v.4C1936.6 1865.2 1935 1866.9 1933 1866.9z"></path></g><circle cx="793.9" cy="601.4" r="24.1" fill="#F4F3FE" transform="rotate(-72.158 793.845 601.398)"></circle><g><circle cx="940" cy="534.7" r="42.5" fill="#F4F3FE"></circle><circle cx="1791.8" cy="419" r="75.4" fill="#F4F3FE"></circle><circle cx="1819.6" cy="556.8" r="27.9" fill="#F4F3FE" transform="rotate(-45.001 1819.645 556.824)"></circle><circle cx="1832.3" cy="1485.6" r="87.3" fill="#F4F3FE"></circle><circle cx="1527.5" cy="1564.1" r="45" fill="#F4F3FE" transform="rotate(-22.5 1527.383 1564.052)"></circle><circle cx="439.4" cy="1204.6" r="45.7" fill="#F4F3FE"></circle></g><g><path fill="#0C7684" d="M501.4,1786.5c0,0,3.4,9.1,1.4,16.5c-2.1,7.5-5,10.1-5.2,10.4s-3.1,6.3-7.1,4c-4-2.3-5.2-7.3-3.9-12.6
					c1.3-5.3,2.4-9.9-0.9-11.5c-3.3-1.5-4.9,1.5-4.6,6.7s3.7,16.8,1.9,18.4c-1.8,1.6-20.7,4.3-24.1,3s-0.6-2.2,0.2-6
					s1-10.7-2.6-11.3c-3.6-0.6-5.6,6.9-7.1,9.3c-1.6,2.4-3.6,5.3-4.7,5.5c-0.9,0.2-11.9-3.7-19.1-8.3c-2.3-1.5-3.8-3.7-4-5.8
					c-0.4-3.9-0.8-10.4,0.3-13.7c1.7-4.9,7.9-4.1,10.2-3.9c2.3,0.2,18.7,0.7,20.1-2c1.4-2.6-3.3-3-7.6-3.4
					c-4.4-0.4-15.5-1.4-15.2-2.5s9-11.4,16.1-13c7.2-1.7,27.7,10.8,29.1,8.5c1.4-2.3-3.6-4.1-6.6-5.5c-3-1.3-15.6-6-13.8-7.3
					c1.8-1.3,5.7-7.6,19-3.2C486.4,1763.2,501.4,1786.5,501.4,1786.5z"></path><path fill="#0C7684" d="M519.1 1785.1c-.1.3-.6.4-1.1.2-.1 0-5.7-2.5-23-4.5-17.3-2-52.7 20.4-53.1 20.6-.3.2-.9.1-1.3-.3-.4-.4-.4-.8-.1-1.1 1.5-.9 36.1-22.9 54.1-20.8 17.9 2 23.5 4.6 23.8 4.7C519 1784.2 519.3 1784.7 519.1 1785.1 519.2 1785 519.1 1785.1 519.1 1785.1zM522.3 1761.6c0 0 8.4 4.3 15.7 2.7 7.3-1.5 10-4.3 10.3-4.6.3-.2 6.3-2.7 4.4-7-1.9-4.3-6.5-5.9-11.7-5-5.1.9-9.7 1.7-10.8-1.9-1.2-3.6 1.9-4.9 6.8-4.2 4.9.7 15.8 5.2 17.4 3.5 1.6-1.7 5.8-21 4.8-24.6-1-3.6-2-.8-5.8-.3-3.7.5-10.3.1-10.6-3.6-.3-3.7 7.1-5.2 9.5-6.6 2.4-1.4 5.3-3.3 5.6-4.4.3-.9-2.5-12.6-6.4-20.4-1.2-2.5-3.3-4.3-5.2-4.6-3.6-.7-9.8-1.7-13.1-.8-4.8 1.3-4.5 7.8-4.5 10.2 0 2.3-.9 19.3-3.5 20.6-2.6 1.2-2.6-3.6-2.6-8.1-.1-4.5-.1-16.1-1.2-15.8-1.1.3-11.5 8.3-13.7 15.6-2.2 7.3 8.1 29.4 5.7 30.7-2.4 1.3-3.6-4.1-4.7-7.3-1-3.2-4.5-16.6-5.9-14.8-1.4 1.7-7.7 5.3-4.6 19.3C501.4 1744.2 522.3 1761.6 522.3 1761.6z"></path><path fill="#0C7684" d="M528.1,1799.1c0.3-0.1,0.5-0.6,0.3-1.1c0-0.1-10.5-25.4-10.9-43.4c-0.5-18,23.7-52.7,24-53
					c0.2-0.3,0.2-0.9-0.2-1.4c-0.3-0.4-0.8-0.5-1-0.2c-1,1.4-24.7,35.4-24.2,54.1c0.5,18.6,11,44,11.1,44.2
					C527.2,1798.9,527.7,1799.2,528.1,1799.1C528.1,1799.1,528.1,1799.1,528.1,1799.1z"></path><path fill="#00AE42" d="M315.9,1706.1c2.6,1.8,12.7,1.6,20.6,1.2c7.9-0.5,27.4-8.1,33.2,0.3c5.9,8.4-8.4,18.8-17.8,23.1
					c-9.4,4.3-16.8-0.3-12.7,8.9c4.1,9.2,47.7,44.2,54.5,45.5c6.7,1.2,23.5-24,33.5-32.7c10-8.6,19.4-10.1,23-0.8
					c2.3,5.9-1.5,9.9-8,13.6c-3.8,2.1-8.5,4.1-13.5,6.2c-2.1,0.9-4.1,1.9-5.9,3c-2.8,1.7-5.2,3.7-7.1,5.8
					c-4.7,5.2-6.6,11.7-4.7,18.8c0.6,2.2,1.7,3.8,3.1,5.1c2.2,2,5.1,3,8.1,3.4c5.3,0.8,10.6-0.1,11.2-0.1c0.7,0.1,5.3,0.8,13.4-0.4
					l0,0c4.4-0.7,9.9-1.9,16.3-4.2c0,0,0.1,0,0.1,0c0.6-0.2,1.2-0.4,1.8-0.7c0,0,0,0,0,0c3.8-1.4,7.3-3.4,10.4-5.6
					c2.9-2,5.5-4.3,7.8-6.6c8.1-8,12.7-16.4,12.7-16.4s1.6-6.4,3.3-16.2c0.3-1.6,0.6-3.4,0.9-5.2c3.6-22.7,6.5-58.4-4.8-80.4
					c-17.6-34.4-38.3-32.7-44.6-34.4c-6.3-1.7,9.6,31.7,12.9,40.1c3.3,8.3,9.8,21.5,2.2,22.3c-7.6,0.7-23.4-61.4-41.2-73.7
					c-17.8-12.3-55.9-14.3-58.8-13.3c-2.9,1,17.5,25.7,25.3,35.4c7.8,9.7,16.6,20,8.4,21.2c-8.2,1.2-40.2-33.7-44.4-38.7
					c-4.2-5-15.1-19.3-28.3-15.1c-9,2.8-21.4,13.8-28.5,20.6c-3.9,3.7-5.4,10.3-3.8,17.5C299.4,1675.7,313.7,1704.6,315.9,1706.1z
					 M397.6,1706.6c3.7-1.7,7.7-1,8.9,1.5c1.2,2.6-0.8,6-4.5,7.7c-3.7,1.7-7.7,1-8.9-1.5C391.9,1711.7,393.9,1708.3,397.6,1706.6z
					 M348.8,1649.7c2.1,4.5-1.1,10.4-7.3,13.2c-6.1,2.8-12.8,1.5-14.9-3c-2.1-4.5,1.1-10.4,7.3-13.2
					C340,1643.9,346.7,1645.3,348.8,1649.7z M415,1636.6c2.3,4.8,0.4,10.5-4.2,12.6c-4.6,2.1-10.1-0.1-12.4-4.9
					c-2.3-4.8-0.4-10.5,4.2-12.6C407.2,1629.6,412.7,1631.8,415,1636.6z M444.9,1675.1c3.2,6.8,2,14.1-2.8,16.3
					c-4.8,2.2-11.2-1.5-14.4-8.3c-3.2-6.8-2-14.1,2.8-16.3C435.2,1664.5,441.7,1668.3,444.9,1675.1z M390.7,1751.2
					c-2.6-5.5,1.9-13,10.1-16.8c8.2-3.8,16.9-2.4,19.5,3.1c2.6,5.5-1.9,13-10.1,16.8C402,1758.1,393.3,1756.7,390.7,1751.2z"></path><path fill="#0C7684" d="M500,1752.1c29.1,37.4,49.7,85.7,49.9,86.4c0.5,1.4,0.2,2.8-0.8,3.1c0,0-0.1,0-0.1,0
					c-1,0.2-2.1-0.6-2.6-2c-0.1-0.1-20.4-47.6-47.2-82.3C499.4,1755.7,499.7,1753.9,500,1752.1z"></path><path fill="#0C7684" d="M424,1699.5c-8.8-17.5-10.1-38.9-10.1-39.1c0-0.7-0.6-1.3-1.3-1.3c-0.7,0-1.2,0.5-1.2,1.2
					c0,0.9,1.2,20.2,9.1,37.6c-36.6-17-71.7-28.7-74.3-29.5c-1.1-0.4-2,0.5-2,1.8c0,1.4,0.9,2.8,2,3.2c0.3,0.1,7.5,2.5,18.7,6.6
					l-27.8,7.4c-0.7,0.2-1,0.9-0.7,1.5c0.2,0.7,1,1.1,1.6,0.9l31-8.3c16.4,6.2,39.6,15.5,61.9,26.5c-9.2,3.9-32.6,14.5-43.3,24.1
					c-0.5,0.4-0.5,1.2,0,1.8c0.5,0.5,1.3,0.6,1.8,0.2c11.2-10,37.4-21.5,44.6-24.5c25.2,12.6,48.9,27.2,60.5,42c1.6,2,3.1,4,4.6,5.8
					c0.3-1.6,0.6-3.4,0.9-5.2c-1-1.2-2-2.5-3-3.8C483.1,1730.6,453.4,1713.4,424,1699.5z"></path></g><g><path fill="#D3C5F9" d="M966.8 546c-1 1-1.5 2.4-1.2 3.8l4.3 25.2c.6 3.5-3.1 6.2-6.3 4.6L941 567.7c-1.3-.7-2.8-.7-4 0l-22.6 11.9c-3.2 1.7-6.9-1-6.3-4.6l4.3-25.2c.2-1.4-.2-2.8-1.2-3.8l-18.3-17.8c-2.6-2.5-1.2-6.8 2.4-7.4l25.3-3.7c1.4-.2 2.6-1.1 3.3-2.4l11.3-22.9c1.6-3.2 6.2-3.2 7.7 0l11.3 22.9c.6 1.3 1.8 2.2 3.3 2.4l25.3 3.7c3.5.5 5 4.9 2.4 7.4L966.8 546zM1916.1 686.9c-1 .2-1.7 1-2.1 1.9l-6.1 16.7c-.9 2.3-4 2.7-5.4.6l-9.5-15c-.5-.8-1.4-1.4-2.4-1.4l-17.7-.6c-2.5-.1-3.8-3-2.2-4.9l11.3-13.7c.6-.8.8-1.8.6-2.7l-4.9-17.1c-.7-2.4 1.7-4.5 4-3.6l16.5 6.5c.9.4 2 .2 2.8-.3l14.7-9.9c2.1-1.4 4.8.2 4.7 2.7l-1.1 17.7c-.1 1 .4 1.9 1.1 2.5l14 10.9c2 1.5 1.3 4.6-1.1 5.3L1916.1 686.9zM1118.4 1046c-.5.8-.6 1.9-.2 2.8l6.9 16.3c1 2.3-1.1 4.7-3.5 4.1l-17.2-4.5c-1-.2-2 0-2.7.6l-13.4 11.6c-1.9 1.6-4.8.4-5-2.1l-1.1-17.7c-.1-1-.6-1.9-1.4-2.4l-15.2-9.2c-2.1-1.3-1.9-4.4.5-5.4l16.5-6.5c.9-.4 1.6-1.2 1.8-2.1l4-17.3c.6-2.4 3.7-3.1 5.2-1.2l11.3 13.7c.6.8 1.6 1.2 2.6 1.1l17.7-1.5c2.5-.2 4.1 2.5 2.8 4.6L1118.4 1046z"></path></g><g><path fill="#F23868" d="M1687.2 336.9c13.2-30.7-28.3-34.7-28.3-34.7s-2.9-41.6-33.9-29.3c-31 12.3-19.2 80.9-19.2 80.9S1674.1 367.6 1687.2 336.9zM846.9 402.4c-28.2-17.8-38.8 22.5-38.8 22.5s-41.5-3.7-34.3 28.9 76.9 31.7 76.9 31.7S875.2 420.3 846.9 402.4z"></path></g></svg>